<?xml version="1.0"?>
<svg xmlns:rdf="http://www.w3.org/1999/02/22-rdf-syntax-ns#" xmlns="http://www.w3.org/2000/svg" xmlns:cc="http://creativecommons.org/ns#" xmlns:xlink="http://www.w3.org/1999/xlink" xmlns:dc="http://purl.org/dc/elements/1.1/" xmlns:svg="http://www.w3.org/2000/svg" id="svg2" viewBox="0 0 158.89 169.14" version="1.0">
  <defs id="defs4">
    <filter id="filter3277" y="-.11123" width="1.5249" height="1.2225" x="-.26245">
      <feGaussianBlur id="feGaussianBlur3279" stdDeviation="4.0078606"/>
    </filter>
    <filter id="filter3331" y="-.13072" width="1.4726" height="1.2614" x="-.23629">
      <feGaussianBlur id="feGaussianBlur3333" stdDeviation="4.0432747"/>
    </filter>
    <filter id="filter3345" y="-.21643" width="3.1388" height="1.4329" x="-1.0694">
      <feGaussianBlur id="feGaussianBlur3347" stdDeviation="11.509912"/>
    </filter>
    <filter id="filter3355" y="-.23488" width="1.4907" height="1.4698" x="-.24535">
      <feGaussianBlur id="feGaussianBlur3357" stdDeviation="5.4367647"/>
    </filter>
    <filter id="filter3443" y="-.08023" width="1.3013" height="1.1605" x="-.15064">
      <feGaussianBlur id="feGaussianBlur3445" stdDeviation="3.431047"/>
    </filter>
    <filter id="filter3449" y="-.14014" width="1.2098" height="1.2803" x="-.10492">
      <feGaussianBlur id="feGaussianBlur3451" stdDeviation="1.6388959"/>
    </filter>
    <filter id="filter3507" y="-.1579" width="1.1935" height="1.3158" x="-.09677">
      <feGaussianBlur id="feGaussianBlur3509" stdDeviation="10.487501"/>
    </filter>
    <filter id="filter3665" y="-.207" width="1.571" height="1.414" x="-.28552">
      <feGaussianBlur id="feGaussianBlur3667" stdDeviation="4.3389233"/>
    </filter>
    <filter id="filter3699" y="-.076606" width="1.5536" height="1.1532" x="-.27679">
      <feGaussianBlur id="feGaussianBlur3701" stdDeviation="4.2218627"/>
    </filter>
    <filter id="filter3713" y="-.11144" width="1.26" height="1.2229" x="-.12998">
      <feGaussianBlur id="feGaussianBlur3715" stdDeviation="3.6231202"/>
    </filter>
    <linearGradient id="linearGradient3932" y2="622.73" gradientUnits="userSpaceOnUse" x2="481.79" y1="622.73" x1="442.73">
      <stop id="stop3181" stop-color="#fff" offset="0"/>
      <stop id="stop3183" stop-color="#fff" stop-opacity="0" offset="1"/>
    </linearGradient>
    <linearGradient id="linearGradient3934" y2="627.3" gradientUnits="userSpaceOnUse" x2="491.62" y1="627.3" x1="449.92">
      <stop id="stop3191" stop-color="#979797" offset="0"/>
      <stop id="stop3193" stop-color="#979797" stop-opacity="0" offset="1"/>
    </linearGradient>
    <linearGradient id="linearGradient3936" y2="647" gradientUnits="userSpaceOnUse" x2="473.17" y1="647" x1="451">
      <stop id="stop3201" stop-color="#fff" offset="0"/>
      <stop id="stop3203" stop-color="#fff" stop-opacity="0" offset="1"/>
    </linearGradient>
    <linearGradient id="linearGradient3938" y2="606.52" gradientUnits="userSpaceOnUse" x2="484.7" y1="606.52" x1="431.07">
      <stop id="stop3211" stop-color="#fff" offset="0"/>
      <stop id="stop3213" stop-color="#fff" stop-opacity="0" offset="1"/>
    </linearGradient>
    <linearGradient id="linearGradient3940" y2="559.83" gradientUnits="userSpaceOnUse" x2="478" gradientTransform="translate(12.452 .31235)" y1="559.83" x1="405.23">
      <stop id="stop3223" stop-color="#fff" offset="0"/>
      <stop id="stop3225" stop-color="#fff" stop-opacity="0" offset="1"/>
    </linearGradient>
    <linearGradient id="linearGradient3942" y2="695.47" gradientUnits="userSpaceOnUse" x2="477.39" y1="695.47" x1="423.5">
      <stop id="stop3237" stop-color="#fff" offset="0"/>
      <stop id="stop3239" stop-color="#fff" stop-opacity="0" offset="1"/>
    </linearGradient>
    <linearGradient id="linearGradient3944" y2="755.44" gradientUnits="userSpaceOnUse" x2="558.17" y1="755.44" x1="531.65">
      <stop id="stop3643" stop-color="#ffd169" offset="0"/>
      <stop id="stop3645" stop-color="#ffd169" stop-opacity="0" offset="1"/>
    </linearGradient>
    <linearGradient id="linearGradient3946" y2="745.4" gradientUnits="userSpaceOnUse" x2="599.81" y1="745.4" x1="565.04">
      <stop id="stop3653" stop-color="#ffd169" offset="0"/>
      <stop id="stop3655" stop-color="#ffd169" stop-opacity="0" offset="1"/>
    </linearGradient>
    <linearGradient id="linearGradient3950" y2="409.4" gradientUnits="userSpaceOnUse" x2="584.56" y1="409.4" x1="557.08">
      <stop id="stop3789" stop-color="#333" offset="0"/>
      <stop id="stop3791" stop-color="#333" stop-opacity="0" offset="1"/>
    </linearGradient>
    <linearGradient id="linearGradient3952" y2="415.83" gradientUnits="userSpaceOnUse" x2="465.49" y1="415.83" x1="446.53">
      <stop id="stop3801" stop-color="#333" offset="0"/>
      <stop id="stop3803" stop-color="#333" stop-opacity="0" offset="1"/>
    </linearGradient>
  </defs>
  <g id="layer1" transform="translate(-459.25 -647.38)">
    <g id="g3847" transform="matrix(.27828 0 0 .33702 446.11 541.35)">
      <g id="g3579" fill-rule="evenodd" transform="matrix(.71934 .69466 -.69466 .71934 481.89 -88.751)">
        <g id="g3515" stroke-opacity="0" transform="matrix(.71934 -.69466 .69466 .71934 -297.68 398.15)">
          <path id="path3157" d="m115.24 452.95c2.46 4.12 4.93 8.24 7.39 12.35 9.39 15.71 30.21 30.37 43.34 43 20.98 20.17 42.91 39.05 65.02 57.82 20.73 17.61 40.62 37.38 62.06 54.37 11.87 9.4 21.91 20.52 32.51 30.14 7.27 6.61 14.07 15.07 22.16 21.25 2.99 2.29 4.68 5.7 6.9 8.4 0.84 1.03 7.33 3.9 8.37 4.45 5.22 2.77 9.97 4.75 14.78 6.43 3.51 1.22 6.99 5.22 10.34 7.41 3.76 2.46 6.78 4.08 9.85 5.93 1.85 1.11 4.33 4.35 5.91 5.93 1.98 1.99 7.64 2.79 10.84 3.96 7.05 2.57 9.74-1.6 14.28-3.46 6.65-2.73 10.52-5.61 15.76-11.87 2.6-3.09 9.12-6.09 11.82-8.4 2.67-2.27 5.87-6.22 8.38-8.89 2.74-2.91 6.8-5.12 9.85-7.42 3.46-2.6 6.1-4.51 9.36-6.91 3.28-2.43 6.08-5.12 9.85-7.91 3.21-2.37 5.41-6.11 7.88-8.9 4.33-4.88 5.14-7.15 8.37-13.34 2.79-5.35 5.24-9.93 6.9-16.31 0.84-3.25 4.52-8.32 5.91-10.87 1.62-2.98 0.83-5.29 1.47-9.39 0.78-4.94-0.3-10.48-0.49-15.32-0.24-6.13-4.31-13.52-6.4-19.28-1.55-4.28-5.34-9.58-7.88-13.84-3.4-5.68-7.88-8.89-12.32-13.34-7.34-7.36-13.5-11.94-21.67-17.79-10.43-7.48-19.29-15.72-30.04-22.73-13.07-8.53-26-17.14-39.41-25.21-15.01-9.04-27.97-18.97-43.34-26.69-11.01-5.52-24.6-8.24-36.45-11.86-15.08-4.6-35.48-1.26-34.48-17.29 1.47-23.53-61.54 11.3-53.19 0 15.06-20.41 3.26-23.46-6.4-26.69-6.15-2.06-37.44 14.29-43.35 11.86-4.8-1.97 22.4-19.88 18.72-21.25-4.9-1.82-34.16 7.3-34.48 5.93-0.14-0.58 4.03-11.67 4.43-12.85 3.94-11.4 19.83-24.85 18.72-32.62-1.12-7.85-34.58 33.09-42.36 34.6-7.24 1.39-14.41 4.15-20.69 6.42-9.03 3.26-17.27 10.94-25.61 15.32-5.43 2.85-11.712 4.28-17.237 5.44-5.415 1.13-10.564 2.92-15.762 4.45-5.073 1.48-7.757 3.89-11.821 5.93-4 2-4.036 5.4-5.91 7.9-3.432 4.59 10.187 5.26 15.269 7.91 4.751 2.48 9.525 3.39 13.791 4.94 6.105 2.23 7.126 5.53 10.836 8.4 6.904 5.36 4.964 4.34 18.224 9.89 6.33 2.65 9.85 9.55 14.78 14.33" fill="#ffff82"/>
          <path id="path3159" d="m525.53 632.59a68.956 86.734 0 1 1 -137.91 0 68.956 86.734 0 1 1 137.91 0z" fill="#666" transform="matrix(1.1698 0 0 1.1383 -85.633 -99.336)"/>
          <path id="path3163" d="m472.67 615.11c-6.31-3.74-19.19 4.43-23.81 8.59-5.62 5.04-11.48 10.79-14.17 17.8-1.43 3.74-1.72 5.82-1.4 9.69 0.17 2.04 5.24 4.4 6.7 5.31 4.53 2.81 8.33 5.76 13.07 8.43 5.09 2.86 9.93 6.12 14.32 9.68 5.27 4.29 10.11 8.48 15.88 12.34 5.65 3.78 10.84 6.6 15.87 11.09 3.78 3.37 7.99 5.48 11.99 8.43 3.28 2.43 6.5 4.22 9.65 6.87 2.53 2.14 5.29 3.93 8.25 5.78 2.03 1.28 2.96 3.04 4.35 4.53 1.03 1.1 3.52 0.62 4.98 0.62 1.97 0 3.14-2.36 4.36-3.59 1.77-1.77 3.22-3.63 4.83-5.15 1.79-1.7 2.84-2.88 4.36-5.15 0.68-1.03 1.52-2.08 2.18-2.97 0.49-0.68 0.91-1.22 1.4-1.88 1.27-1.7-1.15-5.34-1.87-6.71-2.56-4.9-5.74-8.75-9.34-12.96-3.88-4.54-6.28-9.9-10.43-14.06-3.7-3.71-7.55-7.76-10.58-12.03-2.54-3.56-4.66-6.54-7.63-9.52-2.57-2.58-4.87-4.83-7.63-7.19-2.28-1.94-3.48-4.41-5.29-6.71-1.48-1.88-2.58-3.48-4.2-5.31-1.61-1.82-2.9-3.48-4.67-5.15-1.41-1.33-2.36-3.23-3.27-4.38-1.17-1.48-3.03-2.87-4.36-4.06-1.06-0.95-2.95-1.78-3.89-2.34-1.01-0.61-1.78-0.27-3.11-0.47-0.82-0.12-1.66-0.11-2.34-0.16" fill="#999"/>
          <path id="path3169" d="m479.52 601.83c-1.35-0.46-2.7-0.93-4.05-1.4-5.76-2-14.01 0.81-19.3 2.97-6.49 2.65-12.67 3.53-18.83 7.02-7.13 4.05-8.92 9-12.45 16.09-2.6 5.22-3.76 11.53-4.21 17.34-0.37 4.88 0.74 8.48 2.5 12.96 1.68 4.3 3.78 7.55 6.84 10.46 2.03 1.92 4.58 3.1 7.01 4.37 1.61 0.85 3.13 1.1 4.98 1.25 2.3 0.2 3.95 1.05 6.38 1.25 1.6 0.14 3.29-0.09 4.83-0.15 1.19-0.05 2.03-0.72 3.11-1.1 1.25-0.44 2.64-1.62 3.89-2.34 1.32-0.76 1.08-1.09 1.87-1.87 1.05-1.06-4.96-2.62-5.61-2.81-2.97-0.91-5.8-2.22-8.71-3.28-2.2-0.81-3.16-2.78-4.36-4.22-1.09-1.32-0.55-5.22-0.62-7.03-0.09-2.18 0-4.38 0-6.56 0-2.88 1.2-5.52 1.71-8.28 0.62-3.37 2.22-6.5 3.42-9.52 1.51-3.79 2.98-6.44 4.67-10.15 0.77-1.69 3.83-2.18 5.29-2.81 1.49-0.65 4.72 0 6.39 0 1.86 0 4.01 0.18 5.6 0.31 2.71 0.23 3.66 0.95 5.91 1.87 1.73 0.71 2.82 0.38 4.83 0.78 1.36 0.28 1.39-2.79 1.71-3.43 0.58-1.16 0.1-3.7 0.16-5 0.13-3.24-0.6-3.17-2.96-6.72z" fill="#333"/>
          <path id="path3171" d="m495.24 624.32c0.05-1.35 0.1-2.7 0.16-4.06 0.26-6.94-10.28-6.84-15.1-7.34-7.2-0.74-13.45-0.18-19.77 3.44-7.59 4.35-12.03 13.95-12.76 22.02-0.61 6.66 1.33 12.58 1.87 19.05 0.42 5.17 3.23 11.39 5.6 15.78 0.74 1.37-0.21 3.12-0.31 4.68-0.24 3.57-4.8-5.31-7.01-8.12-2.59-3.29-3.37-10.82-3.89-14.84-0.57-4.43-0.93-8.46-0.93-12.96 0-4.01 1.33-7.12 2.64-10.77 1.3-3.63 3.29-6.85 4.67-10 1.05-2.38 3.49-4.28 5.3-6.09 1.82-1.83 4.26-2.58 6.38-3.59 2.28-1.09 4.87-1.33 7.31-1.88 2.14-0.47 5.14 0 7.32 0 1.77 0 3.55 0.09 5.29 0.16 2.98 0.11 4.22 2.48 5.6 4.22 2.09 2.61 1.95 5.39 2.65 8.43 0.07 0.31 0.1 0.62 0.16 0.94" fill="#b3b3b3"/>
          <path id="path3173" d="m492.75 617.14c1.41 6.12-13.01 0.94-18.37 4.22-5.15 3.14-10.1 7.75-13.69 12.49-3.16 4.16-5.94 8.18-8.88 12.18-1.82 2.49-2.33 7.04-2.8 10-0.49 3.08-0.31 6.24-0.31 9.37 0 1.48 2.39 5.03 2.96 6.4 1.58 3.81-2.96-7.9-2.96-12.03 0-5.23-0.23-9.66 1.56-14.52 1.43-3.88 4.13-7.04 5.6-11.09 1.16-3.2 3.27-5.12 5.45-7.18 2.32-2.2 4.44-4.61 6.69-6.87 1.8-1.8 3.88-2.98 6.07-4.38 1.72-1.09 3.38-1.48 5.29-2.18 1.79-0.65 3.01-0.61 5.14-0.78 2.61-0.22 2.72 1.46 4.05 2.96 0.44 0.51 0.3 1.44 0.46 2.19" fill="#1a1a1a"/>
          <path id="path3175" d="m475.16 601.05c0.05 0.06-11.08 0.45-20.54 3.91-5.73 2.09-10.43 4.34-15.1 8.28-4.78 4.02-10.03 12.08-12.61 17.64-2.11 4.56-2.09 9.35-2.96 14.21-0.8 4.54-1.4 8.29-1.4 13.12 0 5.46 1.3 6.77 4.98 10.47 4.48 4.49 4.98 0.07 4.98-4.22 0-6.32-1.55-12.36-1.55-18.74 0-6.62 0.98-10.39 3.42-16.4 2.01-4.95 5.47-10.34 8.56-14.68 2.53-3.54 6.53-6.35 10.12-8.75 2.83-1.89 4.35-2.52 7.78-2.81 5.62-0.47 9.17 0.66 14.32-2.03" fill="#808080"/>
          <path id="path3177" d="m480.14 608.39c5.77-0.48-11.84 0.59-17.12 2.97-5.34 2.4-6.94 7.08-9.49 11.87-2.29 4.29-3.34 9.67-4.21 14.37-1 5.44-1.42 2.71-2.8 4.37-0.91 1.11-3.23-12.26-3.27-13.27-0.23-6.45 1.47-11.04 4.83-16.09 1.83-2.76 5.45-4.92 8.09-6.87 2.52-1.87 7.93-1.83 10.9-2.19 3.25-0.39 6.84 0.15 9.8 0.63 1.76 0.28 2.18 2.81 3.27 4.21z" fill="url(#linearGradient3932)"/>
          <path id="path3187" d="m490.88 622.14c1.72 0.27-6.3-5.78-16.34-5.78-3.92 0-12.03 8.64-14.48 11.56-3.41 4.07-6.6 6.4-9.02 11.08-1.39 2.68 0 5.15 0-0.78 0-6.89 0.31-8.52 4.82-13.9 3.31-3.94 8.79-7.4 12.76-10.3 3.09-2.25 8.5-0.96 11.99-0.47 3.3 0.45 5.7 2.53 8.4 4.21 2.5 1.56 1.22-0.85 1.87 4.38z" fill="url(#linearGradient3934)"/>
          <path id="path3197" d="m466.91 625.1c4.5 2.8-8.77 6.63-11.05 11.4-3.09 6.49-1.4 17.64-1.4 24.68 0 2.14 0.21 4.28 0.47 6.4 0.77 6.46-3.43-12.7-3.43-19.21 0-6.94 4.88-11.05 9.34-15.77 4.38-4.63 5.31-7.8 11.83-5.15" fill="url(#linearGradient3936)"/>
          <path id="path3207" d="m484.19 602.93c0.68-0.72-21.05-5.85-23.19-6.09-6.57-0.74-11.92 1.74-16.03 6.56-2.94 3.43-4.31 9.1-6.23 13.11-1.72 3.59-2.21 3.79-4.36 5.63-2.11 1.8-2.75-7.99-2.8-9.22-0.18-4.54 3.79-8.3 6.69-11.55 3.28-3.68 6.6-6.01 11.21-7.5 3.39-1.09 6.63-1.74 10.12-2.66 3.57-0.93 7.47-0.42 11.05-0.15 3.8 0.28 7.65 4.2 10.11 6.56 2.07 1.98 1.72 1.87 3.43 5.31z" fill="url(#linearGradient3938)"/>
          <path id="path3217" d="m431.58 617.76c0.48 0.46-1.94 17.6-2.02 19.68-0.13 3.07-0.58 6.01-0.78 9.06-0.11 1.7 0.56 2.72 0.78 3.75 0.02 0.1 2.04-8.01 2.18-9.68 0.48-5.85 1.68-11.03 2.49-16.72 0.89-6.25 0.48-6.48 2.95-12.18 0.04-0.09 0-0.2 0-0.31" fill="#fff"/>
          <path id="path3219" d="m466.91 527.96c-1.24-0.15-2.49-0.31-3.73-0.46-3.39-0.43-7-0.16-10.43-0.16-3.86 0-7.58 0.03-11.36 0.47-3.13 0.36-6.25 1.24-9.19 2.18-2.51 0.81-4.93 3.43-7 5.16-3.96 3.3-4.63 5.85-4.83 11.09-0.2 5.47 3.31 9.59 5.61 14.21 2.57 5.16-3.64 9.42-6.7 12.49-2.98 3 0.88 9.78 2.49 11.87 3.51 4.55 7.05 5.5 12.46 6.4 5.05 0.85 11.06-0.14 15.87-1.4 4.64-1.21 6.53-1.42 9.65 1.72 2.85 2.86 4.81 1.26 7.63-1.56 3.45-3.47 5.28-3.72 9.81-3.91 3.26-0.14 4.34 2.28 7.31 1.56 2.4-0.58 5.45-17.24 5.45-20.14 0-6.77-2.42-10.65-6.54-15.47-3.15-3.68 2.14-9.94 4.05-12.49 2.39-3.21 0.29-4.18-2.34-5.93-1.97-1.33-3.54-3.56-5.13-5.16-1.58-1.58-11.46-0.74-13.08-0.47z" fill="url(#linearGradient3940)"/>
          <path id="path3233" d="m456.48 675.7c-1.55 0.99-3.11 1.98-4.67 2.97-4.99 3.17-12.56 2.85-18.05 5-4.97 1.95-7.22 1.74-9.18 6.56-1.88 4.61 1.25 10.31 3.58 13.74 2.31 3.41 7.99 4.05 11.51 5.47 4.06 1.63 6 4.04 10.43 5.15 3.39 0.85 6.89 0.63 10.43 0.63 2.22 0 8.02-5.04 10.43-6.25 3.08-1.55 4.07-4.82 4.67-8.28 0.58-3.34 1.38-5.52 1.24-9.06-0.05-1.41-2.75-5.48-3.26-6.87-1.88-5.02-3.21-5.64-8.72-7.34-2.56-0.79-5.83-0.98-8.41-1.72z" fill="url(#linearGradient3942)"/>
          <path id="path3243" filter="url(#filter3277)" d="m485.59 554.83c1.35 0.41 2.7 0.83 4.05 1.25 7.88 2.43 14.54 18.68 15.25 26.08 0.67 6.89 1.71 13.16 1.71 20.14 0 3.39-2.02 7.73-2.18 11.56-0.21 5.04-0.03 10.15 0.31 15.15 0.32 4.53 2.23 6.64 4.36 8.9 0.88 0.94 6.67 0.16 8.1 0.16 4.27 0 3.33-5.08 3.58-8.59 0.49-7.24 0.46-14.45 0.46-21.71 0-5.16 0.12-10.32-0.62-15.31-0.7-4.71-1.09-9.09-2.33-13.74-1.05-3.88-2.82-7.21-4.52-10.62-1.6-3.21-3.02-5.44-5.29-8.12-2.26-2.67-5.14-4.22-8.25-5.78-2.84-1.43-4.77-1.37-7.78-1.25" fill="#353535" fill-opacity=".72491"/>
          <path id="path3281" filter="url(#filter3331)" d="m406.21 555.61c-6.01-3.02-6.5 11.78-9.5 17.8-3.79 7.63-0.05 21.14 2.81 28.42 2.29 5.85 7.59 7.14 13.23 7.34 5.75 0.21 8.11 0.02 12.14-4.21 3.74-3.94 5.56-11.89 6.38-17.03 1.11-6.99 2.46-13.91 3.27-20.92 0.51-4.42 0.96-7.91 0.31-12.18-0.46-2.97-6.08-7.85-7.78-10.31-1.98-2.85-1.2-4.3-3.74-6.56-5.37-4.79-7.88 0.18-9.81 4.22-1.71 3.58-5.6 5.8-8.56 8.43-1.56 1.4-0.41 9.34-1.55 12.34" fill="#898989" fill-opacity=".72491"/>
          <path id="path3335" filter="url(#filter3345)" d="m402.63 664.93c-0.46 0.41-2.65-13.24-4.2-24.52-1.32-9.56-2.04-18.57-4.52-27.8-0.93-3.48-0.77-7.72-0.77-11.4 0-4.63 1.57-9.18 2.8-13.59 1.24-4.44 1.07-10.1 2.02-14.68 0.51-2.45 2.29-4.91 3.27-7.18 1.16-2.68 0.78-6.21 0.78-9.06 0-3.35-6.14 5.71-6.38 6.25-2.24 4.86-4.24 9.8-5.61 15.3-1.38 5.56-2.77 11.15-4.04 16.71-1.04 4.51-0.94 8.97-0.94 13.59 0 4.91 0.04 9.69-0.62 14.52-0.69 4.98-2.91 9.33-3.27 14.53-0.22 3.17 0.13 6.41 0.47 9.37 0.28 2.44 4.03 6.75 5.6 8.74 2.05 2.61 3.25 6.63 5.14 9.53 1.62 2.51 4.17 4.88 5.91 7.5 1.95 2.93 3.37 5.22 4.83 8.43 1.87 4.13 2.74-1.89 2.8-3.44 0.27-6.88-3.56-12.42-0.16-16.86" fill="#404040" fill-opacity=".72491"/>
          <path id="path3349" filter="url(#filter3355)" d="m404.81 691.32c0.28-7.11 8.53 11.49 13.7 16.4 3.4 3.23 9.52 2.03 13.85 1.72 3.04-0.22 6.36-1.77 9.34-2.34 2.4-0.47 1.87-10.58 1.87-12.19 0-5.15-1.95-8.51-4.36-12.8-2.49-4.42-7.06-3.59-11.68-3.59-4.68 0-7.38-0.36-11.51-2.35-2.78-1.33-6.21-1.25-9.34-1.25-4.36 0-4.18-5.91-4.83-9.52-0.67-3.8-2.71-6.6-4.82-9.22-2.91-3.59-5.06 5.73-5.3 6.87-1.2 5.82 1.5 10.45 3.43 15.62 1.82 4.88 6.13 8.98 9.65 12.65" fill="#404040" fill-opacity=".72491"/>
          <path id="path3359" d="m546.14 711.62c1.35-0.72 2.7-1.45 4.04-2.18 2.47-1.33 4.09-7.88 4.98-10.31 1-2.7 0.63-5.9 0.63-8.74v-6.1c0-2.72-4.86-2.88-6.85-3.28-4.46-0.89-7.27-0.69-10.9 1.57-2.23 1.39-4.81 6.23-6.69 8.12-2.48 2.49-2.38 4.44-2.96 7.81-0.58 3.4 0 7.46 0 10.93 0 2.81 0.21 5.13 0.63 7.65 0.3 1.82 1.25 2.67 2.17 4.22 1.19 1.98 1.65 0.67 3.43 1.4 1.62 0.67 3.99-0.99 5.29-1.56 2.81-1.22 3.2-1.47 4.98-2.81 0.81-0.61 0.38-1.24 0.62-2.03" fill="#0d0d0d" fill-opacity=".72491"/>
          <path id="path3361" d="m481.54 629.63c3.31-2.48 18.07 13.36 20.55 15.62 4.36 3.98 8.25 6.6 12.14 10.93 2.94 3.28 5.24 6.81 8.09 10.31 3.06 3.75 6.42 7.41 9.81 10.62 2.16 2.05 3.84 3.96 5.91 5.93 1.17 1.12 3.01-0.13 4.05-0.31 1.43-0.25 3.19-0.15 4.83-0.15 3.01 0 1.35-0.91 2.8-1.88 1.73-1.16-5.12-6.78-5.76-7.49-3.74-4.2-8.23-7.86-11.99-12.03-3.96-4.39-8.48-8.04-12.92-12.02-3.33-3-5.83-6.65-9.02-9.69-2.46-2.34-5.03-5.06-7.94-7.49-2.07-1.74-3.25-3.76-4.67-5.63-1.47-1.93-2.24-2.9-3.74-4.68-1.6-1.91-1.96-1.85-4.67-2.5-1.51-0.36-3.15-1.47-4.51-2.19-2.05-1.07-2.27 0.5-3.74 1.1-1.61 0.66-1.95 4.11-2.33 5.62-0.82 3.31-0.97 1.48 3.11 5.93z" fill="#0d0d0d" fill-opacity=".72491"/>
          <path id="path3363" d="m465.36 637.29c-0.47 1.85 18.7 15.14 21.16 17.49 4.77 4.54 8.76 9.5 13.23 14.21 3.43 3.6 7.17 7.19 10.9 10.31 2.76 2.31 5.33 4.41 8.09 6.56 1.76 1.36 3.09 2.23 4.83 3.28 1.38 0.83 2.37 1.49 3.58 2.18 2.14 1.23 3.3-0.89 4.67-1.72 1.52-0.91 3.49-4.18 4.51-5.46 0.96-1.21 0.6-1.72 1.09-3.13 0.91-2.6-9.46-9.42-11.05-10.93-5.32-5.05-9.36-10.54-14.16-15.93-4.04-4.53-10.14-8.21-14.64-12.49-3-2.86-6.42-5.67-9.18-8.28-1.8-1.7-3.81-2.93-5.6-4.53-0.63-0.55-1.01-2.02-1.4-2.81-0.69-1.39-1.11-0.79-2.18-1.56-0.62-0.45-5.69 3.79-6.07 4.06-3.11 2.18-6.24 5.02-7.78 8.75z" fill="#fff" fill-opacity=".89219"/>
          <path id="path3365" d="m461 666.49c-6.26 4.4 12.08 9.61 16.81 15.62 2.96 3.76 8.68 6.63 12.14 9.52 3.16 2.65 5.61 5.3 8.71 7.97 2.42 2.08 4.51 3.63 7.16 5.15 2.09 1.2 4.07 2.36 5.92 3.28 1.61 0.81 3.09 2.14 4.36 2.97 1.23 0.81 2.6 1.44 4.04 2.03 1.55 0.64 2.55 1.56 3.74 2.5 1.47 1.16 3-1.23 3.42-1.41 1-0.41 1.7-3.92 2.03-4.84 0.64-1.78 0.39-3.84 0.46-5.78 0.07-1.76-7.48-6.85-8.71-7.81-4.69-3.63-9.16-7.15-14.01-10.46-4.33-2.95-7.58-7.44-11.21-11.09-3.33-3.34-8.65-4.24-12.29-7.49-2.58-2.3-4.89-4.77-7.01-7.03-1.49-1.59-4.29-2.92-6.22-4.06-2.47-1.47-3.16-1.75-6.23-1.88-3.41-0.14-3.68 3.97-4.2 6.25-0.57 2.46 0.27 4.1 1.09 6.56z" fill="#525252" fill-opacity=".89219"/>
          <path id="path3367" d="m438.43 535.46c-0.34 1.46-0.73 2.92-1.09 4.37-1.75 7.02-9.48 8.19-9.81 17.03-0.22 5.94 2.38 9.62 3.12 15.3 0.5 3.87 0.21 6.92 1.4 9.84 0.73 1.79 9.57 2.74 11.67 4.53 3.05 2.6 1.85 3.45 4.83 5.15 4.3 2.47 5.87-14.28 6.07-16.4 0.4-4.27-2.58-6.93-3.27-11.08-0.76-4.54 1.78-9.66 2.8-13.9 0.18-0.76-7.27-1.62-8.25-1.88-1.03-0.27 0.93-12.61 0.93-14.52 0-3.7-2.05-3.35-5.13-3.59-1.22-0.1-2.51 0-3.74 0" fill="#fff" fill-opacity=".89219"/>
          <path id="path3369" d="m439.67 685.39c-2.92-0.24 0.83 15.3 1.4 16.24 1.41 2.32 10.9 3.83 13.23 5.93 0.35 0.32 1.32 5.91 1.56 6.56 0.97 2.67 7.68-0.74 8.41-1.09 3.74-1.79 1.57-8.11 0.77-10.15-1.88-4.83-5.88-6.54-6.53-12.03-0.17-1.37 3.81-5.74 4.67-7.18 1.56-2.61-6.74-1.31-8.25-1.25-3.3 0.13-3.51-0.71-4.98-1.25-4.1-1.49-7.62 1.95-10.28 4.22z" fill="#fff" fill-opacity=".89219"/>
          <path id="path3371" d="m543.34 698.51c-6.85-2.5-9.31 8.93-9.65 13.11-0.65 7.77 3.95 12.52 7.16 19.21 2.44 5.11 1.71 12.54 1.71 18.12 0 9.08-0.08 13.09 4.51 21.08 2.76 4.8 7.5 9.25 11.52 13.28 4.46 4.47 6.11 8.3 8.87 13.59 2.63 5.04 3.13 12.89 4.36 18.42 1.13 5.13 2.11 5.85 6.54 6.41 4.58 0.57 7.05-0.39 11.05 2.34 3.98 2.72 7.31-0.21 10.74-2.5 5.84-3.91 10.98-9.04 15.56-14.21 4.46-5.03 5-11.93 5.45-18.27 0.36-5.04 0.46-9.84-0.47-14.68-0.9-4.72-6.21-7.4-9.96-9.37-4.75-2.5-9.22-4.41-13.54-7.5-3.67-2.63-6.99-5.35-11.05-7.65-4.26-2.42-8.45-4.26-12.61-7.19-4.31-3.03-8.27-6.24-11.83-9.99-2.57-2.72-3.89-4.51-5.13-7.97-0.84-2.32-0.2-6.73-0.47-9.05-0.45-3.88-2.13-6.05-4.98-8.59-1.88-1.68-7.04-1.45-9.5-2.97-1.54-0.96-2.02-3.04 1.72-5.62z" fill="#ffffd0" fill-opacity=".89219"/>
          <path id="path3373" d="m572.13 761.13c-0.36-0.22 10.3-2.9 20.08-0.15 4.99 1.4 9.52 4.23 14.16 6.55 5.31 2.67 5.99 9.02 6.7 14.37 0.75 5.69-0.31 10.35-4.98 12.5-7.06 3.24-9.39-5.75-12.77 1.71-1.88 4.15-1.87 4.85-7.47 4.85-7.42 0-3.73-14.88-3.27-18.59 0.93-7.47 2.11-12.77-5.45-15.62-3.35-1.26-8.2-0.31-11.2-1.4-4.59-1.68 1.51-11.33 2.8-12.96" fill="#fffffe" fill-opacity=".89219"/>
          <path id="path3375" d="m542.71 723.34c4.03-5.12 2.69 13.01 6.07 18.58 3.59 5.91 6.07 13.12 8.41 19.68 1.41 3.97 3.4 6.9 5.91 9.68 4.45 4.94 2.75-10.52 2.65-11.09-1.45-7.74-6.88-15.96-9.96-23.27-1.58-3.73-4.07-6.19-6.07-9.21-1.88-2.82-2.33-5.59-3.43-8.75-0.53-1.54 0.14-0.89 0.31-2.03" fill="#fffffe" fill-opacity=".89219"/>
          <path id="path3377" filter="url(#filter3443)" d="m474.54 549.05c0.41 0 0.41 0 0 0-9.13 0 18.44 5.29 24.59 12.02 5.18 5.67 10.45 9.41 14.01 16.25 3.3 6.34 3.36 16.13 5.45 23.11 1.68 5.64 1.71 11.76 1.71 17.65v14.52c0 4.19 0.06 8.23 0.62 12.34 0.83 6.02 2.44 2.14 2.49 2.18 4.96 4.36 2.18-13.07 2.18-19.67 0-6.58-0.08-12.29-1.71-18.59-0.9-3.48-1.51-7.13-2.34-10.46-0.71-2.87 0-6.89 0-9.84 0-3.8-0.6-6.7-1.71-10.31-0.87-2.84-2.94-5.33-4.51-7.81-1.72-2.71-2.82-5.33-4.05-8.27-1.25-3.01-3.46-5.37-5.76-7.34-1.69-1.46-4.16-2.49-6.07-3.44-2.58-1.29-5.16-2.25-7.78-3.12-2.59-0.87-5.39-1.07-7.94-1.57-1.69-0.32-3.16 2.29-4.04 3.28-1.18 1.33-0.19 2.37-0.32 3.91" fill-opacity=".89219"/>
          <path id="path3447" filter="url(#filter3449)" d="m491.35 555.61c-0.45 0.5-5.54-9.05-11.21-16.87-2-2.76-5.33-4.63-8.25-6.09-2.36-1.19-3.66-2.14-5.91-3.12-3.91-1.71 0.16-0.68 2.64-0.47 5.11 0.42 10.79 5.25 14.79 8.12 3.39 2.43 5.56 5.88 7.94 9.06 1.54 2.05 3.62 3.94 5.45 5.77 1.36 1.37 2.74 1.59 4.04 2.35" fill-opacity=".89219"/>
          <path id="path3453" d="m131.4 458.1c9.09 9.12 16.48 21.57 23.66 32.17 4.87 7.19 10.77 13.31 16.03 20.15 5.62 7.29 12.84 13.32 18.06 20.77 5.43 7.75 13.93 15.08 21.17 21.08 6.2 5.14 12.7 9.79 19.3 14.37 4.7 3.27 9.05 6.66 14.01 9.37 5.25 2.88 10.38 5.14 14.94 9.06 4.29 3.7 8.96 6.98 13.23 10.62 3.77 3.21 7.09 7.01 10.89 10.31 3.34 2.89 7.06 5.38 10.28 8.12 3.67 3.13 7.8 7.04 11.36 10.93 2.89 3.16 5.59 6.33 8.4 8.59 2.36 1.89 5.63 2.81 8.1 4.53 2.37 1.65 4.84 3.51 7.78 5.31 2.67 1.63 3.59 2.04 6.23 2.81 3.06 0.9 4.6-2.47 5.91-4.53 2.72-4.28 5.86-7.52 7.78-12.34 2.01-5.03 0.81-12.52 1.56-17.96 0.98-7.13 1.56-14.27 2.49-21.39 0.89-6.82 1.24-11.94-0.78-18.59-2.82-9.29-9.84-16.7-14.94-24.83-5.27-8.4-15.11-14.39-23.19-19.68-8.94-5.84-16.36-9.88-23.82-17.8-5.62-5.97-13.68-10.59-20.08-15.77-8.41-6.82-18.53-11.31-27.7-17.03-9.61-5.98-18.15-11.82-28.64-16.4-9.4-4.09-17.61-10.12-26.93-14.21-6.22-2.73-11.58-6.33-17.43-9.68-4.84-2.78-9.3-7-13.7-10.31-4.19-3.16-10.75-3.65-15.72-4.99-3.9-1.06-7.84-2.38-11.36-4.07-2.3-1.1-3.89-3.46-6.23-4.52-3.12-1.43-9.48 0.43-12.29 1.4-3.31 1.15-6.36 4-9.03 6.25-1.843 1.56-4.063 2.49-6.069 3.75-2.564 1.6-0.673 4.08-0.156 5.93 1.538 5.51 9.165 11.16 12.915 15.31 3.38 3.73 7.08 7.43 10.59 10.77 5.5 5.23 13.38 2.48 14.16 6.87 0.22 1.25 6.24 3.08 7.32 3.6" fill="#ffff0e" fill-opacity=".56506"/>
          <path id="path3467" d="m131.25 436.39c0.76 4.28 24.94 20.1 32.06 25.77 9.32 7.42 17.15 15.83 26.62 22.96 9.8 7.38 18.83 15.4 29.41 21.71 12.93 7.69 25.06 21.17 35.34 32.17 11.64 12.46 27.27 20.82 38.75 33.58 3.86 4.28 9.69 8.58 12.92 12.33 3.17 3.68 8.37 5.82 11.83 9.84 3.08 3.58 6.17 6.83 9.81 9.84 2.35 1.95 4.03 5.77 5.76 8.12 2.3 3.14 6.05 6.21 9.18 8.75 1.74 1.41 3.67 3.31 5.45 5 2.09 1.98 3.43 4.42 4.82 6.87 1.1 1.92 2.42 3.99 3.58 5.93 1.19 1.99 2.98 3.73 4.05 5.78 1.41 2.72 1.42 6.48 1.87 9.53 0.44 3.01 0.75 4.67 2.02 7.34 1.22 2.56 1.86 5.01 2.49 7.65 0.42 1.76 1.42 4.2 1.87 5.93 0.53 2.03 0.64 3.83 1.4 5.78 0.57 1.47 1.68 1.69 2.65 2.66 1.83 1.84 3.03 2.73 4.51 4.21 2.49 2.5-0.2 1.87-0.31 2.97-0.19 1.78-16.47-7.25-17.75-7.81-5.59-2.43-10.58-8.23-14.63-12.49-3.91-4.12-8.14-7.56-11.98-11.87-4.89-5.48-8.17-11.79-13.39-17.02-7.51-7.55-14.74-16.14-21.01-24.68-6.6-8.98-14.22-16.19-21.48-24.52-6.48-7.43-14.16-13.08-21.79-19.21-7.52-6.03-16.06-11.19-23.04-17.8-6.49-6.15-12.87-11.85-20.08-17.18-5.42-4.01-10.08-8.45-15.25-12.81-5.51-4.64-9.9-10.21-15.1-14.99-4.24-3.9-9.5-6.34-14.16-9.53-4.83-3.3-7.91-7.23-11.99-11.08-3.4-3.22-7.18-5.87-10.58-8.91-4.06-3.62-7.72-7.6-11.36-11.71-3.13-3.53-6.6-5.14-9.65-8.59-3.1-3.49-6.57-6.54-9.65-9.99-2.4-2.7-5.43-4.99-8.25-7.5-3.33-2.97-7.223-5.34-10.274-8.59-1.664-1.77-3.052-3.19-4.514-4.84-1.59-1.8 7.943-2.41 9.808-2.66 4.09-0.53 7.74-1.59 11.52-2.96 1.5-0.55 2.47-2.93 3.42-4.53 1.84-3.13 5.42 3.32 7.47 5.15 3.92 3.49 9.65 4.91 14.48 6.4 3.34 1.04 4.25 3.34 4.98 6.25" fill="#ffca0e" fill-opacity=".56506"/>
          <path id="path3469" d="m85.285 425.77c-1.556-0.83-3.113-1.66-4.669-2.5-7.155-3.82-11.597-5.82-16.499-12.49-3.209-4.37-4.093-11.23-4.98-16.4-0.872-5.07-1.58-8.44 0.778-12.96 1.408-2.7 4.946-5.28 6.693-7.03 1.387-1.39 5.749 5.14 6.381 5.94 1.695 2.12 3.029 3.29 4.67 4.84 1.327 1.25 3.565-1.15 4.202-1.41 1.894-0.78 3.597-3.42 6.226-4.68 9.545-4.58 18.913-11.05 28.333-16.09 10.44-5.59 21.16-9.79 32.37-13.43 4.99-1.62 10.19-2.73 14.94-4.69 3.2-1.31 7.04-2.28 10.43-3.28 4.52-1.32 8.61-3.09 13.23-3.9 2.73-0.48 4.53-0.45 7-1.09 3.76-0.99 6.46-2.02 10.43-2.5 3.85-0.47 8.1-0.07 11.83-0.47 4.87-0.52 7.72-0.68 11.68 2.03 2.91 2 2.64 9.44 2.64 12.65 0 2.04-6.25 4.04-7.78 4.84-1.93 1.01-3.68 2.04-5.45 3.28-2.16 1.52-2.75 3.11-4.36 5-1.81 2.14-1.24 6.52-1.24 9.21 0 3.25 3.9 6.86 5.76 9.22 2.18 2.77 6.1 4.33 9.03 6.09 3.65 2.2 7.47 3.22 10.89 5.62 2.6 1.83 4.81 2.48 7.78 3.44 2.68 0.86 5.72 1.22 8.41 1.87 1 0.24 2.31 0.7 3.11 0.94 4.24 1.27 8.5 2.95 12.76 4.21 3.62 1.08 6.65 1.94 9.81 3.6 2.86 1.49 5.74 2.36 8.72 3.28 2.7 0.83 4.91 2.07 7.31 3.12 2.52 1.1 5.31 2.06 7.78 2.97 0.31 0.11 0.26 0.77 0.32 0.93 1.2 0.44-10.06 2.35-21.8 2.35-19.25 0-38.43-1.74-57.59-3.6-24.16-2.34-48.89-1.4-73.15-1.4-17.21 0-38.33 2.01-55.099 6.4-2.597 0.68-3.853 1.1-6.849 1.1-1.73 0-3.27 3.93-4.047 4.99z" fill="#ffe50e" fill-opacity=".94052"/>
          <path id="path3471" d="m205.45 365.65c-10.16 0-28.43 6.69-39.54 9.83-13.68 3.88-27.47 6.12-40.93 10.62-9.43 3.16-19.21 7.64-29.11 8.44-4.768 0.38-9.327 2.21-13.853 3.59-3.191 0.97-5.639 1.18-8.405 2.5-2 0.95-3.106 2.42-4.358 3.75-2.728 2.89 7.669 3.56 8.405 3.59 9.833 0.39 16.786-3.36 25.371-7.81 8.09-4.19 13.11-7.56 22.57-9.21 9.23-1.61 18.28-2.86 27.55-4.06 7.45-0.97 14.39-3.41 21.63-4.38 4.33-0.58 8.61-2.15 12.46-3.43 3.15-1.06 6.5-3.03 9.49-4.53 2.78-1.4 5.15-3.31 7.78-4.69 0.8-0.42 4.51-5.46 4.98-5.62 1.35-0.47-2.7 0.94-4.04 1.41z" fill="#ad9a00" fill-opacity=".94052"/>
          <path id="path3473" d="m288.56 410.16c0.44-0.16 19.03 15.19 22.1 17.02 5.79 3.43 10.1 8.8 15.72 12.65 3.85 2.63 7.9 4.3 11.37 6.87 5 3.7 9.73 6.26 15.56 8.28 3.89 1.34 7.74 3.67 10.74 5.78 1.05 0.73-9.29-1.08-20.08-5.31-13.78-5.42-27.32-13.41-40.31-20.46-9.83-5.34-19.79-9.66-30.04-14.37-6.96-3.2-11.15-9.5-18.21-12.5-6.22-2.64-13.21-4.22-19.61-6.55-4.72-1.73-8.93-4.12-13.08-7.19-2.48-1.84-4.99-3.32-6.85-4.84-3.91-3.21 5.15-1.37 6.39-1.09 7.45 1.66 15.69 7.24 22.25 11.09 4.96 2.9 11.17 3.98 16.66 5.31 4.13 0.99 8.32 2.09 11.98 3.43 3.44 1.25 7.11 2.18 10.74 2.81 4.77 0.83 8.95 1.55 13.08 3.28" fill="#ffec4e" fill-opacity=".94052"/>
          <path id="path3475" d="m332.92 442.64c3.42 0.6 18.1 11.47 24.59 15.62 9.23 5.89 18.67 9.88 26.93 17.18 5.16 4.55 11.82 8.2 17.75 11.71 4.76 2.82 9.24 6.03 14 8.9 5.02 3.02 11.18 4.24 16.5 6.56 3.5 1.53 6.05 3.71 8.87 6.09 2.74 2.31 5.41 4.45 8.1 6.25 2.34 1.57 4.36 3.06 7.31 4.21 1.69 0.67 3.46 1.27 5.14 1.88 7.08 2.58-9.94-11.5-16.03-15.93-9.89-7.19-18.57-15.57-28.17-23.11-5.83-4.58-11.48-10.07-17.9-13.59-5.39-2.95-10.53-6.46-15.88-9.53-5.16-2.95-10.19-6.58-14.94-9.99-3.57-2.56-7.89-3.93-11.68-6.41-3.51-2.3-7.07-4.55-10.42-7.02-3-2.22-5.88-3.67-9.03-5.31-2.22-1.16-3.77-2.5-6.07-3.6-2.48-1.18-4.63-2.18-7.01-3.43-2.41-1.27-4.46-2.63-6.69-3.91-1.81-1.04-4.01-1.82-5.91-2.65-2.02-0.88-4.33-1.63-6.23-2.5-2.25-1.03-3.39 0.92-4.67 1.41-0.88 0.33-0.58 4.35-0.62 5.31-0.11 2.71 2.87 4.32 4.67 5.93 2.48 2.21 5.18 3.98 7.94 5.78 2.82 1.84 5.62 4.83 8.25 7.03 5.32 4.45 11.05 2.95 15.72 8.12" fill="#ffec4e" fill-opacity=".94052"/>
          <path id="path3477" filter="url(#filter3507)" d="m201.81 392.98c0.07 0.06-17.15-2.52-29.26 2.34-7.32 2.94-14.08 5.84-19.15 11.87-4.55 5.42 1.37 11.29 5.14 14.05 10.46 7.67 20.11 9.14 28.17 20.46 3.04 4.28 0.79 12.08 0.31 16.87-0.43 4.32 20.38 13.53 23.2 15.62 10.83 8.01 16.14 21.87 25.21 31.54 8.33 8.88 15.69 7.96 26.46 11.25 10.72 3.27 16.65 8.26 22.26 17.65 5.48 9.16 15.38 8.27 24.75 8.27 8.24 0 16.14 2.84 24.12 3.91 7.79 1.04 14.82-3.39 20.7-7.81 3.61-2.71 6.5-2.98 10.59-3.28 7.44-0.55 12.42-4.17 18.05-8.59 2.73-2.14 4.25-5.82 7.01-8.12 2.34-1.96 5.11-3.35 7.31-5.16 3.8-3.12 1.94-5.9 8.1-8.43 3.17-1.3 4.43-2.22 6.07-4.68 0.38-0.58-12.66-10.21-13.7-11.09-10.31-8.75-17.13-19.36-29.26-26.24-11.69-6.63-22.83-12.94-35.8-16.55-13.46-3.76-29.04-6.91-39.38-16.71-7.28-6.91-13.3-16.77-22.88-20.78-7.68-3.21-19.9 0.47-28.17 0.47-3.91 0-6.15-12.79-7.01-15.46-1.58-4.93-1.88-5.78-7.47-5.78-7.44 0-14.06-0.46-20.86 1.72-3.66 1.18-8.61 3.37-11.67 3.91" fill="#fff8b7" fill-opacity=".94052"/>
          <path id="path3511" d="m191.07 341.75c-9.37 3.01-18.74 10.51-29.11 13.59-8.92 2.65-18.65 5.84-27.23 9.21-4.73 1.86-9.32 4-14.17 5.31-5 1.35-10.14 1.81-14.32 3.91-3.78 1.9-6.252 3.46-9.336 6.56-1.625 1.63-4.925 3.45-6.226 4.37-0.567 0.4 11.662 1.41 24.122-0.94 8.97-1.69 17.76-6.1 25.84-9.99 6.24-3.01 13.67-4.31 20.39-6.41 5.69-1.77 11.3-3.56 16.81-5.77 5.76-2.31 11.13-6.33 16.5-9.38 3.6-2.04 7.79-3.53 11.36-4.99 2.71-1.12 7.02-0.56 9.96-0.78 1.45-0.12 1.91-2.34 2.65-3.28 2.17-2.77-9.39-3.99-10.43-4.06-8.32-0.56-17.21-0.1-24.12 1.71-1.65 0.43-3.21 1.04-4.83 1.57" fill="#fff165" fill-opacity=".94052"/>
          <path id="path3513" d="m212.71 365.65c-1.25 1.14-2.49 2.29-3.74 3.43-3.62 3.33-12.64 3.5-17.28 5-3.97 1.28-7.71 2.56-11.98 3.28-3.03 0.51-5.64 1.4-8.1 2.34-3.49 1.35 8.7 4.03 9.03 4.06 6.75 0.68 12.52 0.34 18.68-2.18 3.61-1.48 6.57-1.89 10.43-2.03 3.14-0.12 5.33 2.84 7.31 4.84 1.58 1.57 3.82 1.63 5.61 2.18 0.96 0.3-4.11-9.75-4.67-10.62-1.46-2.25-2.09-3.98-3.27-6.24-0.7-1.35-1.35-2.71-2.02-4.06z" fill="#c0ae00" fill-opacity=".94052"/>
        </g>
        <path id="path3569" d="m167.07 552.01c1.26 3.63 2.29-7.37 2.79-11.17 0.3-2.33 0.25-4.46 0.35-6.81 0.1-2.55-0.97-2.73-1.75-4.37-0.56-1.19-5.21-1.62-6.43-1.92-2.51-0.6-4.92-0.52-7.49-0.52-2.31 0-4.44 0.45-6.44 0.87-1.86 0.39-3.76 1.85-5.22 2.62-2.7 1.42-4.88 2.74-6.78 4.54-2.33 2.2-3.61 4.64-5.05 7.16-1.19 2.09-2.07 4.98-2.96 7.16-1.06 2.61-1.76 5.78-2.43 8.9-0.53 2.41-0.42 4.83-0.53 7.34-0.11 2.66 0 5.36 0 8.03 0 2.19 1.15 4.39 1.57 5.76 0.56 1.86 2.08 0.95 3.83 1.75 1.84 0.84 3.52 0.55 5.57 0.87 0.52 0.08 1.02-6.83 1.04-7.16 0.19-2.4 0.75-3.83 1.05-6.11 0.34-2.62-2.16-0.79-3.83-1.4-2.49-0.9-0.47-1.33-1.22-3.49-0.51-1.45 6.57-2.98 7.13-3.14 2.29-0.67 4.27-0.61 6.62-0.7 1.81-0.07 2.64 0.66 4.17 1.05 1.3 0.32 2.75 1.12 3.83 1.57 1.03 0.42 2.73 0.12 4 0.17 3.38 0.15 0.6 1.41 1.4 3.32 0.74 1.78-4.23 2.82-5.05 3.14-1.18 0.46-2.89 0.12-4.18 0.18-1.42 0.06-0.73 2.69-1.04 3.84-0.45 1.67 0.24 3.87 0.35 5.24 0.09 1.2 0 2.45 0 3.66 0 1.25-0.26 2.6-0.35 3.5-0.1 1.01-1.65 1.65-2.26 2.27-1.02 1.02-4.9 0.35-6.27 0.35-2.27 0-4.09-0.31-6.09-0.53-2.06-0.23-3.66-0.39-5.57-0.7-1.83-0.29-3.1-0.92-4.7-1.39-1.42-0.43-3.05-1.32-4.35-2.1-1.2-0.72-1.99-3.59-2.61-4.89-0.61-1.28-0.45-3.74-0.69-5.24-0.27-1.68-0.1-3.46-0.18-5.23-0.07-1.68 0-3.39 0-5.07 0-2.59 0.39-5 0.7-7.51 0.29-2.36 1.37-3.78 2.26-5.76 0.68-1.49 1.28-3.27 1.74-4.54 0.59-1.62 1.34-3.04 2.09-4.36 0.69-1.21 1.56-2.24 2.44-3.5 1.12-1.6 1.87-3.31 2.78-5.23 0.64-1.34 1.57-2.3 2.26-3.32 0.42-0.61 2.32-1.65 2.96-2.1 1.23-0.86 2.09-1.36 3.48-2.27 1.49-0.97 2.58-1.3 4.35-1.92 1.43-0.5 2.8-1.01 4.35-1.57 0.85-0.31 2.03-0.51 2.79-0.7 0.86-0.21 2.34-0.11 3.48-0.17 1.56-0.08 2.11-0.42 3.48-0.7 1.04-0.21 2.5-0.23 3.83-0.35 2.13-0.19 2.94 0.63 4.52 1.05 1.31 0.34 2.21 1.44 3.48 2.27s2.04 1.51 3.31 2.44c1.54 1.14 1.36 2.31 2.26 3.84 0.73 1.25 0.86 3.34 1.22 4.72 0.56 2.17 0.87 3.92 1.56 5.94 0.52 1.48 0 4.23 0 5.76 0 1.39-1.08 2.72-1.39 3.49-0.55 1.38-1 2.14-1.39 2.97-0.96 2.05-4.53 0.35-6.79 0.17z" stroke="#000" stroke-width="1px" fill-opacity=".94052"/>
        <path id="path3571" d="m202.57 515c-2.74 5.84-5.54 10.7-9.05 16.23-2.53 4-3.96 10.41-5.56 14.85-2.08 5.72-2.91 11.43-4.18 17.28-1.17 5.4-1.97 11.48-2.44 17.11-0.21 2.51-0.17 5-0.17 7.51 0 1.18 2.4 3.45 2.96 4.19 1.2 1.61 1.74-7.13 1.74-8.03 0-4.68 1.47-8.07 3.13-12.4 1.32-3.44 3.48-6.91 4.87-10.12 1.61-3.72 3.56-7.36 5.22-11 1.56-3.4 3-6.64 4.35-9.96 1.38-3.37 2.88-6.56 4.18-9.95 0.94-2.46 2.22-4.93 3.13-7.16 0.92-2.26 0.57-4.35 0.87-6.81 0.8-6.44-7.19-2.89-9.05-1.74z" stroke="#000" stroke-width="1px" fill-opacity=".94052"/>
        <path id="path3573" d="m221.72 536.12c0.7-5.64-1.87 11.26-2.09 16.94-0.23 5.59-0.35 11.16-0.35 16.76 0 3.91 1.92 7.02 3.48 10.3 1.63 3.44 5.21 3.92 8 4.89 2.38 0.83 6.01 0.18 8.53 0.18 3.1 0 5.58-1.31 8.35-2.45 4.6-1.88 5.45-5.06 6.96-9.43 0.84-2.4 1.05-5.19 1.57-7.68 0.29-1.4 0.56-2.85 0.7-4.54 0.29-3.73 0-7.6 0-11.35 0-3.67 0.69-7.41 0.69-11.17 0-3.15-0.5-5.18-1.21-7.86-0.91-3.37-7.07 3.41-7.14 3.49-2.27 2.71-2.7 6.52-3.13 9.96-0.31 2.5-0.58 5.04-0.87 7.5-0.43 3.56-1.65 6.8-2.96 9.96-0.95 2.28-2.69 4.4-3.83 6.11-1.13 1.7-3.55 1.5-5.22 1.92-1.96 0.49-3.28-2.99-4.18-4.19-1.65-2.21-1.04-6.05-1.04-8.73 0-2.88 1.53-6.09 2.26-8.91 0.66-2.54 1.81-5.12 2.26-7.86 0.52-3.09-0.41-4.32-1.21-6.63-0.91-2.62-4.43 0.25-4.88 0.35-0.24 0.05-0.34 0.35-0.52 0.52" stroke="#000" stroke-width="1px" fill-opacity=".94052"/>
        <path id="path3575" d="m277.92 554.98c-4.02 0.88 8.24 0.35 12.36 0.35 2.45 0 5.14-0.94 7.48-1.22 2.85-0.35 3.21-1.51 5.05-3.15 1.4-1.24 2.09-4.07 2.78-5.93 0.67-1.79 0.35-4.18 0.35-6.11 0-2.53-0.65-4.7-1.22-6.99-0.7-2.81-1.82-3.17-3.13-5.24-1.53-2.41-9.1-1.22-11.49-1.22-3.69 0-7.63 2.9-10.44 4.54-2.63 1.54-3.73 4.29-5.22 6.81-1.41 2.41-2.02 5.91-2.61 8.73-0.55 2.68-0.17 5.81-0.17 8.56 0 3.96-0.1 6.14 1.22 9.78 1.09 3 2.44 5.64 3.83 8.55 1.42 2.99 2.97 3.42 5.39 5.24 2.46 1.85 4.61 2.25 7.66 2.62 3.76 0.45 3.79-1.96 5.22-4.02 2.47-3.54-3.84-7.04-5.75-8.55-1.4-1.12-3.87-2.24-5.39-3.15-4.54-2.69-4.07-11.81-2.26-13.96 0.61-0.73 0.95-4.59 1.22-5.59 0.53-2.06 1.7-3.85 2.61-5.76 0.74-1.58 2.55-3.38 3.48-4.37 1.71-1.83 4.52-1.05 6.26-1.05 2.28 0 2.05 6.51 2.09 7.69 0.15 4.05-5.2 4.32-8.18 5.23-2.49 0.77-4.78 1.37-7.13 2.1-0.11 0.03-0.24 0-0.35 0" stroke="#000" stroke-width="1px" fill-opacity=".94052"/>
        <path id="path3577" d="m103.03 526.35c-2.46 0.76-11.204 16.54-14.092 19.73-3.754 4.14-5.647 9.08-8.875 13.62-3.191 4.48-5.474 9.07-7.309 14.14-1.217 3.36-4.747 6.86-6.613 9.6-1.364 2.01-2.082 4.22-2.958 6.46-0.851 2.18 5.053-4.89 6.091-5.93 4.288-4.31 7.818-7.39 11.137-12.05 2.101-2.95 3.344-6.28 5.394-9.43 1.722-2.65 2.621-5.02 3.481-7.86 0.743-2.45 2.597-4.69 3.654-6.81 1.127-2.26 2.105-4.3 3.133-6.46 0.817-1.71 2.132-3.05 3.306-4.54 1.411-1.79 2.321-3.75 3.311-5.24 3.05-4.59 2.9-7.69 8.35-10.3" stroke-opacity="0" fill-opacity=".94052"/>
      </g>
      <path id="path3637" d="m594.21 755.71c5-0.66 10.39 4.52 13.93 9.26 3.62 4.85 3.06 12.92 1.79 18.44-1.25 5.44-7.67 8.49-11.7 11.49-3.69 2.73-6.51 6.59-9.06 10.2-1.06 1.51-3.51 2.24-4.79 3.6s-1.07 2.01-0.94 3.78c0.08 1.06 8.36 0.39 9.06 0.34 3.9-0.27 5.69-3.78 8.2-6.17 2.5-2.39 5.25-3.21 6.93-6.44 1.5-2.89 3.08-5.64 5.04-8.23 1.58-2.09 2.27-5.07 2.99-7.54 0.85-2.95 1.97-5.27 1.97-8.41 0-3.43-0.54-6.37-1.37-9.6-0.68-2.62-2.15-5.42-3.85-7.46-1.52-1.84-3.84-3.29-5.72-4.63-1.62-1.15-4.28-1.85-6.07-2.49-0.57-0.2-2.65 0.94-3.25 1.2-2.35 1.03-2.83-1.65-3.16 2.66z" stroke-opacity="0" fill-opacity=".94052" fill-rule="evenodd" fill="#ffd169"/>
      <path id="path3639" d="m532.17 732.05c-0.29 0.12 2.66 11.01 2.99 12.17 0.87 3.06 0.51 6.62 0.51 9.78 0 3.37 0.56 6 2.05 9 1.06 2.13 4.91 2.89 6.84 3.52 1.85 0.59 4.56 0.13 6.49 0.42 2.06 0.32 2.27 3.96 2.48 5.41 0.31 2.2 0.36 3.63 1.2 5.57 0.88 2.04 1.92 0.06 2.48-0.17 1.44-0.6-0.91-8.34-1.37-9.52-1.12-2.86-3.95-4.89-6.15-6.77-1.84-1.57-4.8-2.43-6.84-3.6-2.45-1.41-3.65-2.22-5.13-4.55-1.03-1.63-0.68-3.98-0.68-5.83 0-1.92 0.25-4.01 0.25-6 0-3.43-0.63-4.29-3.5-6.35-0.99-0.71-0.95-1.44-1.62-3.08z" fill="url(#linearGradient3944)" stroke-opacity="0" fill-rule="evenodd"/>
      <path id="path3649" d="m568.32 738.99c-2.21-1.58 4.7 2.79 7.26 3.69 2.32 0.81 4.7 1.47 6.92 2.48 2.45 1.12 4.52 2.55 6.67 3.95 2.13 1.39 3.81 3.73 5.89 5.23 1.56 1.11 2.1 1.26 3.76 1.54 1.7 0.29-1.6-6.1-1.79-6.34-1.78-2.31-6.35-3.31-8.89-4.63-2.98-1.56-5.88-3.28-8.71-4.8-2.22-1.2-4.4-2.19-6.76-3.18-1.66-0.69-3.44-1.3-5.12-1.88-1.61-0.57-1.39 0.77-1.97 1.11-0.09 0.06 0 1.32 0 1.54" fill="url(#linearGradient3946)" stroke-opacity="0" fill-rule="evenodd"/>
      <path id="path3659" d="m601.9 767.97c-2.38 1.41 1.54 5.39 1.54 8.15 0 6.27-9.95 10.35-14.27 12.35-2.99 1.38-6.96 4.59-9.57 6.69-2.84 2.28-2.43 6.61-2.31 9.86 0.17 4.51 6.63 4.28 9.4 4.28 5.95 0 8.48-1.54 11.79-6.43 2.02-2.98 4.53-5.27 6.58-8.06 1.51-2.04 2.56-5.43 3.51-7.8 0.88-2.22 1.68-4.47 2.56-6.69 1.1-2.75 1.54-4.59 1.54-7.63s-0.67-5.24-1.97-7.98c-1.19-2.5-2.95-3.42-5.3-4.45-0.89-0.4-2.13-0.18-3.16-0.26" stroke-opacity="0" fill-opacity=".73978" fill-rule="evenodd" filter="url(#filter3665)" fill="#ffe4a6"/>
      <path id="path3669" d="m421.72 634.75c-0.25 5.26-0.19 10.03 2.13 14.69 1.97 3.95 4.56 7.03 7.22 10.41 1.56 1.98 4.44 2.7 6.71 3.37 1.61 0.47 1.39-0.7 2.44-1.23 0.14-0.06-5.9-6.53-6.61-7.24-1.76-1.77-2.6-4.08-3.45-6.22-0.69-1.72-0.6-3.73-0.92-5.51-0.28-1.56-1.86-3.54-2.54-4.9-0.59-1.19-0.57-2.68-1.02-3.77-0.83-2.04-1.79-0.73-3.96 0.4z" fill-opacity=".73978" stroke-opacity="0" fill-rule="evenodd"/>
      <path id="path3671" d="m465.74 600.58c-0.26-0.66-7.93 0.34-9.35 0.61-2.07 0.4-3.62 1.1-5.09 1.94-1.2 0.69-2.14 1.89-2.94 2.75-1.49 1.59-1.57-0.74-1.94-0.91-1.2-0.58 3.19-2.44 3.46-2.56 1.86-0.76 4.09-1.06 6-1.73 1.11-0.39 2.24-0.53 3.36-0.92 1.04-0.36 1.83-0.32 2.94-0.41 1.51-0.12 1.8 0.38 3.56 1.23z" stroke="#000" stroke-width="1px" fill="none"/>
      <path id="path3673" d="m420.4 622.92c3.77-0.3-0.92 7.54-0.92 11.32 0 2.93-0.02 5.8 0.31 8.68 0.25 2.22 0.7 4.49 1.22 6.63 0.53 2.24 1.4-1.45 1.42-2.04 0.15-3.9 0-7.84 0-11.74 0-2.89-0.1-5.77-0.1-8.67 0-5.75 0.04-1.6 2.44-6.63 0.12-0.26 0.4-0.41 0.61-0.61" fill="#fff" stroke-opacity="0" fill-rule="evenodd"/>
      <path id="path3675" d="m458.42 614.25c0.72-1.52-8.63 1.83-10.06 3.57-0.99 1.2-1.15 2.91-2.04 4.18-1.76 2.53 2.33-5.97 4.68-7.96 2.55-2.15 2.93-3.96 5.69-5.1 0.96-0.39 2.72 0.84 3.46 1.23 6.71 3.51-5.34-2.68 0.61 0.3" fill-rule="evenodd" stroke="#000" stroke-width="1px" fill="#fff"/>
      <path id="path3677" d="m394.98 553.14c-4.56 1.37-8.87 4.16-11.9 8.16-3.2 4.23-6.36 8.31-9.66 12.45-3.97 4.97-4.74 10.56-6 16.63-1.51 7.27-1.71 14.94-2.13 22.34-0.49 8.63 1.92 14.55 3.56 22.75 1 5.03 3.28 10.2 6 14.49 2.46 3.88 5.47 6.99 7.62 11.12 1.67 3.19 2.86 5.78 5.29 8.36 2.62 2.79 4.92 5.9 7.52 8.67 1.57 1.67 2.23 3.37 2.95 5.31 0.11 0.29-6.76-3.18-10.98-6.53-4.41-3.51-8.3-9.21-11.08-13.98-2.03-3.47-3.89-7.24-5.59-10.81-1.52-3.17-2.23-6.76-2.95-10.1-0.85-3.93-1.23-7.91-2.04-11.84-0.71-3.44-1.38-6.91-1.73-10.5-0.41-4.29-0.1-8.49-0.81-12.76-0.48-2.88-0.31-5.95-0.41-8.87-0.1-3.28 0.22-5.87 1.33-8.88 1.08-2.93 2.41-4.93 2.84-8.26 0.24-1.82 1.14-3.8 1.73-5.51 0.81-2.33 1.93-4.27 2.75-6.63 0.8-2.32 3.01-4.79 4.47-6.73 1.54-2.07 2.71-4.32 4.37-6.43 1.14-1.45 3.17-2.16 4.68-2.96 1.55-0.82 4.77-0.31 6.51-0.31 3.03 0 3.67 0.51 3.56 3.57" stroke-opacity="0" fill-opacity=".73978" fill-rule="evenodd" filter="url(#filter3699)"/>
      <path id="path3703" d="m236.08 561.61c0.51 0.81 1.02 1.63 1.53 2.45 4.46 7.16 13.58 12.39 19.11 18.87 5.38 6.3 11.41 12.05 17.39 17.75 4.05 3.86 7.49 8.13 11.39 12.04 4.14 4.16 8.57 8.06 12.6 12.34 2.82 3 6.71 4.81 10.17 6.84 3.7 2.16 6.99 6.66 10.07 9.59 2.68 2.54 4.61 5.44 7.22 8.06 2.16 2.17 5.18 3.71 7.62 5.3 2.5 1.63 4.18 4.26 5.8 6.63 1.84 2.72 4.17 4.83 6.71 6.84 2.73 2.17 5.14 5.34 7.52 7.85 1.96 2.07 4.6 3.19 6.61 4.9 0.91 0.78 4.28 1.28 5.49 1.73 2.18 0.83 4.45 1.35 6.71 1.94 2.06 0.54 4.11 2.06 5.8 3.37 0.78 0.61 1.69 0.88 2.54 1.33 1.46 0.76 2.69 1.41 4.27 1.93 1.55 0.52 3.12 3.28 4.17 4.39 0.86 0.92 2.17 1.04 3.25 1.53 0.92 0.42 1.64 0.68 2.75 0.92 0.67 0.15 1.67 0.08 2.23 0.1 1.35 0.06-2.49-4.71-2.64-4.9-1.31-1.61-2.43-3.22-3.66-4.89-1.09-1.49-1.89-2.54-2.95-3.67-1.06-1.14-1.9-2.66-2.74-3.68-0.94-1.13-2.57-1.68-3.87-2.55-1.48-0.99-2.16-2.13-3.25-3.36-1.25-1.41-2.04-3.9-2.65-5.51-0.74-2.01-2.1-3.9-3.25-5.72-0.26-0.41-0.54-0.81-0.81-1.22-1.5-2.26-3.22-4.26-4.98-6.33-1.68-1.96-3.35-3.91-4.99-5.91-2.02-2.48-4.13-4.64-6.3-6.94-2.7-2.86-5.14-5.97-7.73-8.88-2.71-3.04-8.96-4.72-12.6-6.63-3.53-1.84-6.6-4.41-9.77-6.83-3.19-2.45-5.91-5.26-9.35-7.65-4.37-3.04-7.89-7.14-12.3-10.21-4.54-3.15-9.28-6.11-13.63-9.38-4.31-3.24-8.64-5.78-13.32-8.47-3.86-2.22-7.4-4.97-11.18-7.14-2.79-1.6-5.52-3.71-7.83-5.92-2.65-2.53-6.09-3.95-9.15-5.91-1.89-1.22-3.2-2.71-5.08-3.88-1.63-1.01-5.1-0.8-6.92-1.12z" stroke-opacity="0" fill-opacity=".73978" fill-rule="evenodd" fill="#8a6900"/>
      <path id="path3705" d="m91.289 430.43c-4.985-3.09 8.841 7.73 13.221 11.63 3.95 3.53 7.66 7.25 11.69 10.61 3.34 2.8 6.67 5.95 9.76 8.88 3.44 3.26 6.17 6.71 10.17 9.49 4.03 2.8 7.13 6.43 10.67 9.79 3.97 3.76 7.47 6.96 10.68 11.43 3.15 4.39 6.94 8.52 10.37 12.65 3.48 4.18 7.35 8.1 11.29 11.83 3.52 3.34 6.52 7.15 10.27 10.31 3.72 3.14 7.73 5.72 11.59 8.67 2.91 2.22 5.4 4.47 7.82 7.14 2.01 2.21 5.04 4.23 7.63 5.71 3.04 1.74 5 5.06 7.73 7.24 1.94 1.56 4.08 2.92 6.2 3.98 2.28 1.15 4.23 2.74 6.41 3.88 2.58 1.36 0.83-1.53 0.2-2.65-2.36-4.19-9.5-7.83-12.81-11.53-4.07-4.53-7.6-9.62-12.41-13.36-4.55-3.56-9.11-7.09-13.72-10.51-4.46-3.31-9.36-7.86-12.92-12.14-2.99-3.61-7.11-6.44-10.37-9.9-2.99-3.17-5.69-6.37-9.05-9.18-2.88-2.41-5.16-5.18-7.82-7.86-2.54-2.54-5.74-4.35-8.65-6.42-3.16-2.25-5.85-4.92-8.74-7.45-2.62-2.3-5.37-4.51-7.73-7.14-2.18-2.43-4.01-4.63-6.4-6.63-2.21-1.85-4.55-3.61-6.82-5.41-2.43-1.93-4.64-4.37-6.91-6.43-2.17-1.95-4.27-3.98-6.3-6.02-1.68-1.68-3.57-3.28-5.39-4.59-1.494-1.07-2.956-1.96-4.476-2.85-1.831-1.07-3.21-1.72-5.185-3.17z" stroke-opacity="0" fill-opacity=".73978" fill-rule="evenodd" fill="#8a6900"/>
      <path id="path3707" d="m65.267 402.79c-0.349-0.21 3.27 8.52 11.693 14.48 5.86 4.15 10.503 9.6 16.471 13.67 3.616 2.47 6.979 4.76 10.369 7.45 0.99 0.78 4.12 4.25 4.27 4.39 3.59 3.28-4.58-8.83-8.233-12.04-8.293-7.28-16.095-14.97-24.809-21.73-2.234-1.73-3.398-2.81-5.796-3.77-1.72-0.69-2.044-1.12-3.965-2.45z" stroke-opacity="0" fill-opacity=".73978" fill-rule="evenodd" fill="#8a6900"/>
      <path id="path3709" d="m115.12 444.41c-2.42-0.97 10.75 7.86 19.52 16.32 6.94 6.7 11.62 15.64 19.21 21.73 9.09 7.3 17.31 15.6 26.54 22.75 9.54 7.4 16.37 16.8 24.91 25.1 5.85 5.68 11.39 11.33 16.78 17.45 3.49 3.95 6.08 8.15 9.96 11.83 4.03 3.82 7.7 7.61 12.2 10.92 4.17 3.05 7.43 6.81 11.59 9.89 3.23 2.38 5.97 5.49 9.16 7.96 2.83 2.2 5.61 3.88 8.74 6.02 3.67 2.5 7.52 4.8 11.18 7.14 1.75 1.11 3.02 2.97 4.99 4.28 3.44 2.31 8.54 3.09 12.4 4.9 4.6 2.15 9.3 4.11 14.03 5.2 2.93 0.68 4.22 1.58 6.51 1.23 1.03-0.16-13.79-18.69-15.35-20.1-6.95-6.29-13.82-11.72-21.36-17.24-6.64-4.87-14.42-8.43-21.45-12.75-9.06-5.58-17.53-12.31-26.13-18.57-7.77-5.65-13.65-13.31-20.64-19.79-6.85-6.35-13.68-12.73-20.13-19.49-4.72-4.94-9.46-9.7-13.52-15.2-3.89-5.26-7.89-9.57-12.41-14.38-5.85-6.24-11.2-13.48-17.59-18.98-3.72-3.2-7.71-5.82-10.98-9.49-2.32-2.6-5.69-4.67-8.34-7.04-2.35-2.1-4.47-4.4-6.81-6.52-2.75-2.5-6.44-4.37-9.45-6.53-2.17-1.56-4.44-2.46-6.61-3.88-1.92-1.25-4.35-2.04-6.31-3.06-2.2-1.16-3.93-2.05-6.2-2.76-2.21-0.68-4.963-3.14-6.608-4.89-1.568-1.67-4.531-2.74-6.304-4.18-1.436-1.17-2.998-2.01-4.576-2.96-0.123-0.08 4.744 8.76 6.203 10.71 2.538 3.39 6.155 5.99 8.642 9.49 1.654 2.32 5.313 4.07 7.423 5.61 1.98 1.45 3.58 3.58 5.29 5.1 3.03 2.71 6.17 4.95 8.84 7.96 1.01 1.13 2.02 1.45 3.26 2.14" stroke-opacity="0" fill-opacity=".73978" fill-rule="evenodd" fill="#cf9d00"/>
      <path id="path3711" opacity=".98" d="m294.13 574.13c-2.45 4.54 1.05 13.17 4.28 19.02 4.98 8.99 10.18 19.65 17.21 27.25 3.34 3.61 6.91 7.07 10.13 10.6 2.33 2.56 4.76 4.07 8.03 5.09 2.87 0.89 5.3 3.92 7.52 5.78 2.24 1.88 4.32 3.96 6.02 6.05 0.88 1.07 3.45 1.16 4.89 1.22 1.55 0.06 2.06-7.45 2.27-8.59 0.59-3.04 0.93-6.01 1.14-9.11 0.2-2.91 0.17-5.83 0.17-8.76 0-2.51 0.59-4.56 0.79-7.01 0.35-4.28-1.44-7.3-2.88-11.22-1.86-5.02-4.84-9.69-7.78-14.11-1.92-2.9-2.97-4.96-6.02-6.31-1.66-0.73-6.2 0.85-8.39 0.44-3.75-0.7-6.97-5.82-9.86-8.06-2.57-1.98-9.49-0.68-12.58-0.79-3.01-0.1-5.54-1.42-8.47-1.67-3.73-0.31-7.83 1.76-9.87-1.84" stroke-opacity="0" fill-rule="evenodd" fill-opacity=".73978" filter="url(#filter3713)" fill="#e4ad00"/>
      <path id="path3719" opacity=".87497" d="m272.24 399.69c-1.2-0.75 11.22 9.39 24.51 17.08 9.25 5.36 17.41 11.51 26.37 17.08 8.6 5.34 18.26 9.21 27.68 12.76 9.03 3.39 16.71 9.75 24.51 15.39 8.51 6.15 18.72 10.5 27.5 16.14 3.74 2.4 7.25 5.26 10.28 7.69 3.56 2.86 9.32 4.57 13.47 6.57 3.37 1.63 6.49 3.93 9.54 6.2 2.55 1.89 3.68 3.34 5.43 5.44 1.53 1.84 3.24 3.73 5.05 5.44 1.41 1.34 3.14 2.37 5.42 3.38 2.42 1.07 3.86 1.02 5.24 1.32 1.26 0.27-6.78-11.23-7.3-11.83-4.4-5.12-13.12-8.58-18.51-12.76-4.71-3.65-9.32-7.1-13.85-10.89-3.77-3.15-6.97-7.01-10.47-10.32-3.53-3.33-6.83-6.36-10.66-9.2-4.71-3.47-9.18-6.11-14.41-8.63-4.2-2.02-8.41-3.93-12.72-6.01-3.75-1.8-7.47-3.86-11.03-6-3.22-1.94-6.38-3.28-9.54-5.07-3.06-1.74-6.1-3.79-8.79-5.82-2.71-2.03-5.82-3.78-8.42-5.44-3.26-2.08-8.25-3.27-11.79-4.88-4.22-1.93-8.84-4.08-12.9-6.38-3.64-2.07-8.48-4.03-12.35-5.45-3.45-1.26-7.62-2.79-11.04-3.94-1.85-0.62-4.01-0.66-6.36-0.75-1.66-0.06-3.24-0.75-4.86-1.12z" stroke-opacity="0" fill-rule="evenodd" fill-opacity=".47584" fill="#e4ad00"/>
      <path id="path3765" d="m285.15 431.78c-3.58-0.14 17.22 10.53 34.42 17.83 8.49 3.6 16.24 10.9 23.75 16.14 5.41 3.78 11.17 7.06 16.46 10.89 3.84 2.77 7.72 5.36 11.97 7.88 4.65 2.75 9.21 5.1 13.66 8.07 4.26 2.85 9 5.04 12.91 8.07 1.63 1.27 3.59 1.62 5.23 2.63 1.91 1.16 1.94-0.82 3.56-1.5 2.23-0.95 3.57-4.41 4.86-6.57 1.38-2.31 1.28-5.02 1.5-7.7 0.3-3.65-9.69-10.97-11.97-13.13-5.78-5.48-14.49-9.78-20.95-14.64-7.54-5.67-14.85-10.29-23.2-14.64-7.21-3.77-14.33-7.68-21.51-11.45-6.17-3.25-11.58-6.94-17.96-9.76-4.82-2.13-9.49-3.28-14.59-4.51-3.59-0.86-6.86-2.41-10.29-3.38-2.06-0.58-4.12-1.97-5.79-2.62-6.83-2.68-1.26-0.27-4.49 2.44-1.34 1.12 2.52 13.83 2.43 15.95-0.09 2.11 3.99 1.38 5.98 2.07" stroke-opacity="0" fill-opacity=".47584" fill-rule="evenodd" fill="#ffd652"/>
      <path id="path3771" d="m397.76 491.65c-0.19 4.42 10.81 14.64 14.59 18.21 2.31 2.19 5.51 1.95 8.41 2.06 3.04 0.12 6.08-0.13 8.98-0.37 1.88-0.16 3.98-0.71 5.99-0.94 1.71-0.2 4.34-0.65 5.05-0.75 3.2-0.48 0.81-3.39 1.12-4.69 0.57-2.4-13.48-7.8-15.53-8.64-3.84-1.58-8.04-2.44-11.97-3.75-2.8-0.94-5.35-2.63-7.85-3.94-0.17-0.09-0.38 0-0.56 0" stroke-opacity="0" fill-opacity=".47584" fill-rule="evenodd" fill="#ffd652"/>
      <path id="path3775" d="m446.66 347.7c0.96-1.27 2.62 18.53 2.62 33.97 0 14.55 2.15 28.87 0.93 43.54-0.6 7.31-1.69 14.21-2.24 21.4-0.42 5.39-0.19 10.9-0.19 16.33v6.94c0 0.82 0.74-3.44-0.62 3.59-0.49 2.5 0.53-0.56 0.27 1.54-0.46 3.84-0.18 6.69-0.36 7.82-0.24 1.53 2.54 3.04 2.21 4.32-0.64 2.44 3.34 1.74 5.05 1.88 2.98 0.23 7.28 2.85 10.1 3.94 4.9 1.89 11.59 1.69 16.83 2.06 4.35 0.31 8.95 0.74 12.91 1.69 3.5 0.84 7.16 1.05 11.22 1.5 4.59 0.51 8.42 0.38 12.72-0.94 3.99-1.21 7.8-2.73 11.79-4.13 3.21-1.12 5.37-2.37 8.98-3 3.47-0.6 6.43-2.12 9.54-3.75 2.46-1.3 4.98-1.98 7.29-3.19 1.89-1 3.61-2.37 5.05-3.38 2.02-1.42 3.76-2.49 5.99-3.76 1.98-1.12 4.54-2.23 6.36-3.19 1.62-0.84 3.51-1.43 5.24-2.25 1.89-0.9 2.9-2.02 4.3-3 1.23-0.86 0.69-6.81 0.75-8.07 0.15-3.77 0.41-7.48 0.56-11.26 0.16-4.13-0.1-8.15-0.75-12.2-0.74-4.63-2.66-8.93-3.37-13.7-0.99-6.74-0.79-13.67-1.31-20.46-0.37-4.9-2.57-9.91-3.55-14.64-0.55-2.66 0.19-4.94 0.75-7.51 0.59-2.73 0.05-4.67-0.56-7.51-1.18-5.43-0.98-12.22-0.57-17.64 0.19-2.44 0.19-4.87 0.19-7.32 0-2.38-1.47-5.79-2.06-8.26-0.53-2.22-0.36-5.23-0.56-7.69-0.3-3.82-4.45-7.6-7.11-10.14-3.11-2.97-6.97-3.97-10.84-4.69-4.41-0.82-8.97-0.97-13.47-1.31-5.17-0.4-10.59-0.01-15.72 0.37-5 0.37-9.91 0.84-14.77 1.69-5.47 0.96-11.65 0.75-17.21 0.75-6 0-11.58 0.45-17.4 1.13-4.37 0.5-8.38 2.64-12.72 3.19-3.1 0.39-4.52 1.52-6.73 3-2.68 1.79-2.78 3.64-3.56 6.76-1.72 6.92-2.14 8.9-5.98 15.58z" stroke-opacity="0" fill-rule="evenodd"/>
      <path id="path3777" d="m450.59 340.94c0.74 0.5 0.74 0.5 0 0-6.67-4.46 12.25 10.35 18.33 15.58 3.24 2.78 5.88 4.56 8.23 7.32 1.94 2.27 2.66 2.59 5.05 3.94 2.17 1.23 5.19 0.94 7.67 1.13 3.26 0.24 8.76-2.35 12.16-3.01 4.28-0.82 8.29-1.92 12.16-3.38 3.05-1.15 8.26-0.5 11.41-0.75 2.14-0.16 6.43-1.34 7.29-1.5 0.75-0.14 3.65-3.9 4.3-4.69 1.19-1.43 4.98-2.95 6.74-4.13s4.18-1.49 6.17-2.44c1.51-0.72 2.23-2.31 3.55-3.57 2.29-2.16 5.4-3.3 7.86-5.25 2.03-1.61 4.04-2.91 5.61-4.32 1.08-0.96 2.36-1.97 3.37-2.81 0.77-0.65 2.33-1.61 2.99-2.07 0.83-0.57-2.92-4.21-3.18-4.5-1.47-1.66-2.94-2.74-4.49-4.13-1.14-1.02-1.99-1.88-2.99-2.82-1.21-1.14-2.53-0.55-4.3-0.93-2.26-0.5-5.16 0-7.48 0h-6.74c-2.74 0-5.36-0.17-8.04-0.38-2.37-0.19-4.61-0.56-7.11-0.56h-8.42c-3.51 0-6.98-0.05-10.47-0.19-4.56-0.18-9.44 0.63-14.03 0.94-5.2 0.35-10.23 0.3-15.34 1.12-3.58 0.58-7.44 0.58-10.85 1.13-3.01 0.48-5.61 0.71-8.6 1.31-1.56 0.31-3.49 2.21-4.49 2.82-1.54 0.93-1.96 3.28-3 4.88-1.09 1.68-1 4.99-3.36 11.26z" fill="#333" stroke-opacity="0" fill-rule="evenodd"/>
      <path id="path3781" d="m526.16 328.74c-5.5 0-10.96-0.38-16.46-0.38-3.57 0-7.15 0.63-10.67 1.13-3.82 0.55-8.09 0.19-11.97 0.19-3.17 0-5.74 0.94-8.42 1.69-2.98 0.84-5.36 2.91-8.23 3.75-1.75 0.52-1.6 3.95-2.05 5.26-0.76 2.18 3.04 4.49 4.3 5.63 2.46 2.2 6.21 2.85 9.16 3.75 5.25 1.6 10.41 2.02 15.9 2.25 3.79 0.16 7.62 0 11.41 0 3.45 0 6.31-0.29 9.54-0.93 2.78-0.56 4.4-1.31 7.11-2.07 2.8-0.79 5.17-1.84 7.49-3 3.09-1.55 7.83-1.79 10.66-2.82 1.83-0.67 2.59-3.44 3.55-4.88 1.42-2.13-0.91-5.52-1.5-7.13-0.85-2.37-9.62-2.85-11.59-3-6.81-0.53-13.76 1.41-20.58 1.69" stroke="#000" stroke-width="1px" fill-rule="evenodd"/>
      <path id="path3785" d="m560.2 347.13c7.87-2.3-0.19 16.39-0.19 24.59 0 7.74-0.62 15.37-0.93 23.09-0.31 7.78 0.44 15.57-0.56 23.27-0.79 6.07-0.94 12.15-0.94 18.39 0 4.41 0.69 8.89 1.12 12.95 0.54 5.05 1.84 10.04 2.44 15.02 0.41 3.45 2.1 6.93 3.18 9.95 0.31 0.86 6.14-0.64 7.1-0.76 2.99-0.35 5.24-1.37 7.86-2.62 1.17-0.56 2.66-1.74 3.74-2.44 2.08-1.36 0.49-5.08 0-7.32-1.35-6.24-1.21-12.97-2.06-19.33-0.81-6.16-1.64-12.23-2.05-18.4-0.44-6.59-0.56-13.09-0.56-19.7 0-4.53-1.16-9.22-1.5-13.71-0.32-4.2 0-8.54 0-12.76v-10.51c0-3.37-0.24-6.79-0.38-10.13-0.11-3.01-0.48-5.36-1.3-8.07-0.95-3.13-2.71-3.09-5.06-4.32-2.14-1.13-6.52 3.52-9.91 2.81-2.27-0.47 1.87 4.26 2.81 6.39" fill-rule="evenodd" stroke="#000" stroke-width="1px" fill="url(#linearGradient3950)"/>
      <path id="path3797" d="m461.06 354.64c-9.13-1.91 1.31 18.63 1.31 27.97v19.89c0 6.09 0.15 12.19 0.94 18.21 0.78 5.99 1.06 12.14 1.31 18.2 0.23 5.87-0.03 11.78 0.18 17.65 0.13 3.36 0 6.76 0 10.13 0 3.01 0.08 6 0.19 9.01 0.13 3.52-2.73 2.88-4.68 3.94-2.63 1.44-3.6-3.69-4.11-4.88-1.67-3.85-0.38-10.93-0.38-15.2 0-4.14 0.38-8.39 0.38-12.58 0-3.57-0.75-7.16-1.12-10.69-0.42-3.92-0.03-8.08-0.19-12.02-0.17-4.16-0.8-8.02-1.12-12.2-0.33-4.26-1.77-8.37-2.44-12.38-0.55-3.32-1.65-6.16-2.24-9.58-0.68-3.95-0.56-8.19-0.56-12.2 0-3.15-0.94-6.26-0.94-9.57 0-2.68-0.37-5.6-0.37-8.44 0-2.17-0.19-4.38-0.19-6.57 0-2.12 4.86-1.44 6.36-1.5 1.4-0.06 1.54 0.38 2.25 0.56" fill-rule="evenodd" stroke="#000" stroke-width="1px" fill="url(#linearGradient3952)"/>
      <path id="path3807" d="m510.07 370.97c0.62 1.63 1.25 3.25 1.87 4.88 3.34 8.7-0.24 19.8-0.93 28.53-0.72 8.99-0.57 17.99-0.57 27.03v54.61c0 2.48 0.32 4.19 0.57 6.2 0.61 4.92 0.66 0.47 3.18 2.25 0.65 0.46 9.74-3.35 10.84-3.76 2.21-0.8 4.15-1.42 6.18-2.25 3.26-1.34 6.41-0.83 9.91-0.56 2.11 0.16 3.89-0.46 5.8-0.75 3.22-0.5 1.54-6.98 1.31-9.01-1.03-8.92-0.32-17.96-1.12-26.84-0.58-6.33-0.24-12.79 0-19.14 0.25-6.88-0.38-13.73-0.38-20.65 0-5.39-0.91-11.65-1.31-17.08-0.36-4.96 0.71-10.6 1.13-15.58 0.31-3.83 0.03-7.57 0.18-11.45 0.11-2.81 0.15-5.49 0.38-8.25 0.3-3.66-3.68-0.39-7.49 0.75-5.53 1.64-10.97 1.5-16.08 3.94-2.76 1.32-7.37 1.14-10.48 1.69-2.05 0.36-2.71 4.68-2.99 5.44z" fill-rule="evenodd" stroke="#000" stroke-width="1px" fill="#999"/>
      <path id="path3809" d="m490.06 373.22c-0.08 0.02 1.12 31.81 1.12 35.66 0 9.32 0.01 18.74 0.75 27.97 0.46 5.84-0.75 11.47-0.75 17.27 0 5.91-0.14 11.78-0.38 17.64-0.16 4.16-0.76 8.32-0.93 12.57-0.06 1.52-0.5 3.01-0.75 4.51-0.1 0.6-6.09-0.53-6.36-0.57-3.43-0.43-7.01-0.18-10.47-0.18h-5.99c-1.92 0-3.33 0.56-5.05 0.94-1.43 0.31-0.86-0.39-1.68-0.76-1.25-0.55-1.13-4.88-1.31-6-1-5.98-0.38-12.5-0.38-18.58 0-8.13 1.23-16.14 1.5-24.21 0.25-7.46 0.56-14.85 0.56-22.34v-21.96c0-6.61-0.48-13.14-0.75-19.71-0.18-4.42-0.97-8.54-1.31-12.95-0.16-2.07 0.25-4.29 0.38-5.81 0.33-4.13 1.4-0.81 2.61-1.51 4.3-2.46 8.13 5.85 12.72 7.7 2.3 0.92 4.68 2.72 6.74 3.75 1.34 0.68 3.63 1.66 4.11 1.88" fill-rule="evenodd" stroke="#000" stroke-width="1px" fill="#333"/>
      <path id="path3811" d="m524.1 370.03c5.62 2.82 2.24 40.78 2.24 46.74 0 11.2-1.65 22.82-2.05 34.15-0.31 8.71-0.66 17.43-0.94 26.09-0.09 2.98-0.37 5.98-0.37 9.01 0 3.94 6.99-3.88 10.85-4.69 3.28-0.69 7.93-1.56 10.1-2.25 7.4-2.38-3.12-15.32-3.37-23.09-0.41-12.91-1.76-25.31-3.18-38.1-1.1-9.9-1.55-19.89-1.87-29.84-0.16-4.84-0.56-9.6-0.56-14.45 0-4.02-1.35-2.71-2.25-4.51-1.28-2.58-5.72 0.75-8.6 0.94z" stroke-opacity="0" fill-opacity=".60967" fill-rule="evenodd" fill="#fff"/>
      <path id="path3821" d="m572.55 349.95c-0.65-1.29-0.38 14.41-0.38 29.47 0 7.48 0.52 15.19-0.75 22.52-1.39 8.03-0.2 18.24 1.31 26.09 1.42 7.33 1.17 15.7 1.69 23.27 0.2 3 0.18 5.99 0.18 9.01 0 2.3 1.9 5.64 2.25 6.76 1.37 4.43 3-8.89 3.37-13.52 0.66-8.37-0.06-17.05-1.13-25.34-1.22-9.54-2.88-19.02-4.11-28.52-0.84-6.46-1.31-12.83-1.31-19.34 0-4.08-0.38-8.07-0.38-12.2 0-3.57 0.11-6.98 0.57-10.51 0.91-7.02-1.85-7.84 4.67-6" stroke-opacity="0" fill-opacity=".60967" fill-rule="evenodd" fill="#fff"/>
      <path id="path3823" d="m479.02 372.66c0.4-3.07-1.5 16.2-1.5 32.66 0 13.18-1.02 25.69-2.05 38.66-0.68 8.45 0 17.23 0 25.71v19.71c0 5.99 0.83 0.94 3.17 3.57 0.5 0.55 7.3 0.31 8.05 0.37 4.36 0.35 2.67-0.81 4.3-3.94 3.04-5.81 0.37-19.48 0.37-25.9 0-9.23 0.61-18.23 1.31-27.4 0.65-8.39 1.31-16.58 1.31-25.15v-17.83c0-5.23-1.1-10.51-1.31-15.77-0.16-4.34-1.28-2.66-3.55-4.69-2.51-2.24-6.93 1.14-10.1 0" stroke-opacity="0" fill-opacity=".56506" fill-rule="evenodd" fill="#808080"/>
      <path id="path3825" d="m528.78 353.7c-1.87 0.07-3.75 0.13-5.62 0.19-6.66 0.22-12.64 0.74-18.7 2.44-3.18 0.89-3.94 2.44-5.61 3.57-2.58 1.72 6.08 1.26 9.16 1.5 4.58 0.35 8.26-0.48 12.16-1.5 7.2-1.89 9.64-6.02 17.21-4.7 1.47 0.26 4.8-1.77 6.17-2.25 1.94-0.67 3.22-1.36 4.87-2.06 0.72-0.31 1.37-0.75 2.05-1.13 6.68-3.65-15.21-0.56-22.82-0.56-5.51 0-10.94 0.48-15.52 1.88-0.48 0.14 0 1 0 1.5" fill-rule="evenodd" stroke="#000" stroke-width="1px" fill="#808080"/>
      <path id="path3827" d="m559.08 334.56c-1.17 0.36-8.81 12.84-11.79 15.01-4.24 3.1 0.11 2.15 0.19 3.76 0.25 5.09 13.9-3 14.78-3.94 3.19-3.41 4.31-5.16 4.68-9.76 0.09-1.15-2.12-0.88-3.18-1.32" fill-rule="evenodd" stroke="#000" stroke-width="1px" fill="#999"/>
      <path id="path3829" d="m506.14 324.24c0.59-7.44-14.46 3.62-21.7 5.44-4.9 1.23-9.46 1.82-14.4 2.81-2.33 0.47-4.78 0.29-7.11 0.57-3.02 0.36-0.8-1.91-1.49-3.57-0.18-0.41 10.9-3.28 11.41-3.38 3.98-0.74 7.77-1.28 11.78-1.87 4.05-0.61 8.15-1.07 12.35-1.51 6.58-0.68 12.08 0.04 18.14-3 2.62-1.31 7.03-0.65 9.91-0.75 2.68-0.09 5.37 0 8.05 0 3.73 0 7.25 0.22 10.85 0.75 2.65 0.4-13.55 6.45-15.15 6.76-13.94 2.69-24.86 1.5-38.35 1.5-3.01 0-4.23 0.91-6.73 2.06" stroke="#000" stroke-width="1px" fill-rule="evenodd"/>
      <path id="path3831" d="m202.91 358.58c-2.92 0.24-8.74 0.64-12.55 1.87-2.49 0.8-4.8 1.11-7.34 1.41-2.07 0.25-1.3 0.94-1.86 2.31-0.74 1.83 5.57 2.09 6.55 2.13 2.71 0.1 5.42 0.2 8.13 0.09 1.76-0.07 4.17-1.32 5.92-1.78 1.16-0.3 2.48-1.08 3.63-1.41 0.83-0.25 1.48-1.13 2.12-1.6 2.64-1.96-3.94-3.21-4.6-3.02z" fill-rule="evenodd" fill-opacity=".98141" stroke="#000" stroke-width="1px"/>
      <path id="path3833" d="m192.39 390.25c-0.73 0.24-1.47 0.47-2.21 0.71-2.53 0.81-3.18 1.51-4.24 3.55-0.3 0.57-0.78 1.23-1.06 1.68-0.05 0.07 4.39-1.31 4.77-1.5 4.26-2.25 3.56-4 5.22-3.11 1.03 0.56 2.02-1.2 3.09-1.68 0.96-0.44 1.52-0.57 2.57-0.89 0.96-0.3 1.77-0.23 2.82-0.36 1.2-0.14 2.51 0 3.72 0 1.3 0 1.98-0.57 2.47-0.71 2.48-0.71-5.12-0.71-7.69-0.62-1.67 0.06-3.51 1.23-5.3 1.42-2.23 0.24-1.55-0.27-4.16 1.51z" fill-rule="evenodd" stroke="#000" stroke-width="1px" fill="#b3b3b3"/>
      <path id="path3835" d="m250.39 434.16c-4.26 0.46-9.4 2.11-12.73 4.61-2.02 1.51-4.16 2.75-6.1 4.26-0.9 0.69-1.2 2.22-1.51 3.1-0.1 0.29 5.71-1.63 6.1-1.86 2.74-1.57 5.42-2.75 8.14-4.43 1.79-1.12 3.23-2.42 5.21-3.38 1.8-0.86 5.42-2.28 8.31-3.9 1.48-0.83 2.82-1.37 4.07-1.95 1.01-0.46 1.66-1.01 2.21-1.42 2.77-2.05-7.24 0.12-10.17 1.95-4.1 2.57-7.68 4.17-12.2 5.95-0.7 0.27-1.41 1.02-1.94 1.41" fill-rule="evenodd" stroke="#000" stroke-width="1px" fill="#b3b3b3"/>
      <path id="path3837" d="m262.32 461.57c-2.76 1.09-6.2 4.71-8.57 6.74-1.59 1.35-2.54 2.68-3.72 4.26-0.56 0.75-1.44 1.15-2.12 1.68-0.38 0.3 3.2-0.57 4.16-1.33 1.6-1.27 3.21-2.06 4.68-3.46 1.13-1.07 1.88-1.85 2.83-2.92 0.83-0.94 2.07-1.84 3.01-2.58 1.14-0.9 1.74-2.75 3.18-3.01 0.52-0.1 1.22-1.23 1.5-1.51 0.26-0.26-5.16 3.22-10.43 4.7" fill-rule="evenodd" stroke="#000" stroke-width="1px" fill="#808080"/>
      <path id="path3839" d="m283.63 477.89c-2.75 0.77-7.42 5.77-10.35 7.45-2.44 1.4-4.23 3.2-6.54 4.52-1.55 0.89-2.32 2.41-3.09 3.73-0.86 1.45-0.25-0.24 0.79 0.8 1.61 1.61 6.74-2.04 8.05-2.75 2.2-1.19 3.72-4.1 5.57-5.77 1.54-1.4 2.85-2.89 4.51-4.08 3.25-2.33 0.55-4.14 3.89-2.57 0.66 0.31 1.89-1.89 1.94-1.95 0.04-0.05 0-0.93 0-1.15" fill-rule="evenodd" stroke="#000" stroke-width="1px" fill="#808080"/>
      <path id="path3841" d="m303.17 508.96c1.29-1.56 3.35 2.34 5.22 3.11 0.79 0.32 1.91 0.65 2.47 0.79 0.9 0.24 1.52 0.77 2.3 1.16 0.8 0.4 1.8 0.68 3.01 0.88 2.05 0.35 1.7-0.58 2.83-1.15 1.53-0.77 1.91-1.44 3.8-1.6 0.52-0.04 2.51-1.86 3.18-2.21 1.04-0.55 1.89-1.94 2.74-2.66 0.5-0.43 0.39-1.63 0.53-2.22 0.2-0.81-5.19 1.91-5.48 2.13-1.7 1.26-2.88 2.22-4.77 3.01-1.61 0.67-3.32 1.11-5.04 1.69-1.17 0.39-2.82 0.07-4.07 0.18-0.52 0.04-0.29 0.18-0.71 0.44" fill-rule="evenodd" stroke="#000" stroke-width="1px" fill="#b3b3b3"/>
      <path id="path3843" d="m305.29 492.37c-1.89 0.16-5.63 4.25-7.69 5.15-1.87 0.81-2.86 2.39-3.98 3.72-0.98 1.17-1.21 1.72-2.47 2.66-1.5 1.13 3.07 0.28 3.62 0.18 1.72-0.29 3.43-2.56 4.42-3.81 0.87-1.08 1.93-1.97 2.83-2.93 0.75-0.8 1.96-1 2.83-1.42 0.08-0.03 0.12-0.12 0.18-0.18 0.49-0.49 1.96-0.86 2.56-1.15 0.62-0.3 1.49-1.43 1.95-1.86 0.56-0.53 1.49-0.85 2.12-1.24 0.08-0.05 0.18-0.06 0.26-0.09 2.64-0.88 0.03-0.28-1.41 0.09-3.4 0.85-6.69 1.65-9.99 2.48-0.12 0.03-0.06 0.24-0.09 0.35" fill-rule="evenodd" stroke="#000" stroke-width="1px" fill="#999"/>
      <path id="path3845" d="m448.16 658.35c2.62 2.07 9.85 7.36 14.46 10.65 5.07 3.61 9.48 7.54 14.32 11.38 2.49 1.96 4.68 4.17 7.2 5.98 2.63 1.88 5.92 2.93 8.72 4.59 1.98 1.17 3.74 3.59 5.24 5.18 1.39 1.48 3.48 2.54 4.94 3.87 1.63 1.48 3.31 2.97 4.87 4.37 1.47 1.32 3.44 2.19 4.87 3.29 1.01 0.76 1.94 1.64 2.76 2.33 0.89 0.74 1.53 0.76 2.48 1.09 1.1 0.39 1.55-0.36 2.1-0.58 0.97-0.38 0.83-1.57 0.95-2.55 0.25-2.05-4.15-5.7-5.45-6.93-2.5-2.38-4.46-4.64-7.35-6.57-3.12-2.09-6.15-3.92-9.52-5.54-2.96-1.42-5.82-3.45-8.21-5.62-2.36-2.14-5.15-3.96-7.49-6.05-2.29-2.04-4.76-3.7-7.34-5.25-1.83-1.1-3.55-2.45-5.31-3.58-1.91-1.22-3.23-3.03-5.09-4.3-1.51-1.03-3.13-1.68-4.72-2.55-1.21-0.66-1.84-1.62-2.62-2.56-0.83-0.99-1.35-1.5-2.47-2.33-0.87-0.64-1.85-0.99-2.69-1.53-0.69-0.45-1.6-0.72-2.26-1.02-1.57-0.73-0.51 0.61-1.16 1.38-1.63 1.95-0.19 3.43 1.38 4.31 0.16 0.09 0.34 0.14 0.51 0.22" fill-opacity=".98141" stroke-opacity="0" fill-rule="evenodd"/>
    </g>
  </g>
  <metadata>
    <rdf:RDF>
      <cc:Work>
        <dc:format>image/svg+xml</dc:format>
        <dc:type rdf:resource="http://purl.org/dc/dcmitype/StillImage"/>
        <cc:license rdf:resource="http://creativecommons.org/licenses/publicdomain/"/>
        <dc:publisher>
          <cc:Agent rdf:about="http://openclipart.org/">
            <dc:title>Openclipart</dc:title>
          </cc:Agent>
        </dc:publisher>
        <dc:title>Glue</dc:title>
        <dc:date>2009-04-23T22:14:50</dc:date>
        <dc:description>clip art, clipart, glue, glue, image, media, png, public domain, svg, </dc:description>
        <dc:source>http://openclipart.org/detail/25274/glue-by-degri</dc:source>
        <dc:creator>
          <cc:Agent>
            <dc:title>Degri</dc:title>
          </cc:Agent>
        </dc:creator>
        <dc:subject>
          <rdf:Bag>
            <rdf:li>clip art</rdf:li>
            <rdf:li>clipart</rdf:li>
            <rdf:li>glue</rdf:li>
            <rdf:li>image</rdf:li>
            <rdf:li>media</rdf:li>
            <rdf:li>png</rdf:li>
            <rdf:li>public domain</rdf:li>
            <rdf:li>svg</rdf:li>
          </rdf:Bag>
        </dc:subject>
      </cc:Work>
      <cc:License rdf:about="http://creativecommons.org/licenses/publicdomain/">
        <cc:permits rdf:resource="http://creativecommons.org/ns#Reproduction"/>
        <cc:permits rdf:resource="http://creativecommons.org/ns#Distribution"/>
        <cc:permits rdf:resource="http://creativecommons.org/ns#DerivativeWorks"/>
      </cc:License>
    </rdf:RDF>
  </metadata>
</svg>
